STARTFONT 2.1
COMMENT
COMMENT Converted from OpenType font "Exo-Bold.ttf" by "otf2bdf3\otf2bdf 3.0".
COMMENT
FONT -FreeType-Exo-Bold-R-Normal--65-420-112-112-P-313-ISO10646-1
SIZE 42 112 112
FONTBOUNDINGBOX 83 83 -2 -18
STARTPROPERTIES 19
FOUNDRY "FreeType"
FAMILY_NAME "Exo"
WEIGHT_NAME "Bold"
SLANT "R"
SETWIDTH_NAME "Normal"
ADD_STYLE_NAME ""
PIXEL_SIZE 65
POINT_SIZE 420
RESOLUTION_X 112
RESOLUTION_Y 112
SPACING "P"
AVERAGE_WIDTH 313
CHARSET_REGISTRY "ISO10646"
CHARSET_ENCODING "1"
FONT_ASCENT 65
FONT_DESCENT 21
COPYRIGHT "Copyright 2017 The Exo Project Authors (https://github.com/NDISCOVER/Exo-1.0)"
_OTF_FONTFILE "Exo-Bold.ttf"
_OTF_PSNAME "Exo-Bold"
ENDPROPERTIES
CHARS 190
STARTCHAR 0020
ENCODING 32
SWIDTH 260 0
DWIDTH 17 0
BBX 0 0 0 0
BITMAP
ENDCHAR
STARTCHAR 0021
ENCODING 33
SWIDTH 275 0
DWIDTH 18 0
BBX 10 48 4 0
BITMAP
FFC0
FFC0
FFC0
FFC0
FF80
FF80
FF80
FF80
FF80
FF80
FF80
FF80
FF80
FF80
FF80
7F80
7F80
7F80
7F80
7F80
7F80
7F80
7F80
7F80
7F80
7F80
7F80
7F80
7F80
7F80
7F80
7F00
7F00
7F00
7F00
0000
0000
0000
0000
7F80
FF80
FF80
FF80
FF80
FF80
FF80
FF80
7F80
ENDCHAR
STARTCHAR 0022
ENCODING 34
SWIDTH 397 0
DWIDTH 26 0
BBX 21 17 2 32
BITMAP
FFCFF8
FFCFF8
FFCFF8
FFCFF8
FF8FF8
FF8FF8
FF8FF8
FF8FF8
FF8FF8
7F8FF8
7F8FF8
7F87F8
7F87F8
7F87F8
7F87F8
7F87F8
7F87F8
ENDCHAR
STARTCHAR 0023
ENCODING 35
SWIDTH 719 0
DWIDTH 47 0
BBX 45 48 1 0
BITMAP
0000FE03F800
0000FE03F000
0000FC03F000
0000FC03F000
0001FC07F000
0001FC07F000
0001FC07F000
0001F807E000
0001F807E000
0001F80FE000
0003F80FE000
0003F80FE000
0003F80FE000
0003F00FC000
1FFFFFFFFFF8
1FFFFFFFFFF8
1FFFFFFFFFF8
1FFFFFFFFFF8
3FFFFFFFFFF8
3FFFFFFFFFF8
000FE01F8000
000FE01F8000
000FE03F8000
000FC03F8000
000FC03F8000
000FC03F0000
001FC03F0000
001FC07F0000
7FFFFFFFFFE0
7FFFFFFFFFE0
7FFFFFFFFFE0
FFFFFFFFFFE0
FFFFFFFFFFC0
FFFFFFFFFFC0
003F00FC0000
003F00FC0000
003F00FC0000
007F01FC0000
007F01FC0000
007F01FC0000
007E01F80000
007E01F80000
00FE03F80000
00FE03F80000
00FE03F80000
00FC03F00000
00FC03F00000
01FC07F00000
ENDCHAR
STARTCHAR 0024
ENCODING 36
SWIDTH 612 0
DWIDTH 40 0
BBX 33 60 3 -6
BITMAP
0000400000
0003C00000
0007C00000
0007C00000
0007E00000
000FF80000
00FFFFF000
03FFFFFC00
0FFFFFFC00
1FFFFFFC00
3FFFFFFC00
3FFFFFFC00
7FFFFFFC00
7FFFFFFC00
FFF0000400
FFE0000000
FFC0000000
FF80000000
FF80000000
FF80000000
FF80000000
FF80000000
FF80000000
FFC0000000
FFE0000000
FFFFF80000
7FFFFFC000
7FFFFFF000
7FFFFFF800
3FFFFFFC00
1FFFFFFE00
0FFFFFFE00
07FFFFFF00
01FFFFFF00
0007FFFF00
000003FF00
000001FF00
000001FF80
000001FF80
000001FF80
000001FF80
000001FF80
000001FF00
000001FF00
000007FF00
7C007FFF00
7FFFFFFF00
7FFFFFFE00
7FFFFFFE00
7FFFFFFC00
7FFFFFF800
7FFFFFF000
7FFFFFE000
0FFFFF0000
0007E00000
0007E00000
0007E00000
0007E00000
0007E00000
0007E00000
ENDCHAR
STARTCHAR 0025
ENCODING 37
SWIDTH 964 0
DWIDTH 63 0
BBX 59 48 2 0
BITMAP
03FFE000007E0000
1FFFF80000FC0000
3FFFFE0001FC0000
7FFFFE0001F80000
7FFFFF0003F00000
7FFFFF0003F00000
FFC1FF0007E00000
FE003F000FE00000
FE003F000FC00000
FC003F001F800000
FC003F003F800000
FC003F003F000000
FC003F007F000000
FC003F007E000000
FC003F00FC000000
FC003F01FC000000
FE003F01F8000000
FE003F03F8000000
FF007F03F0000000
FFFFFF07E0000000
7FFFFF0FE0000000
7FFFFE0FC0000000
3FFFFE1FC0000000
1FFFFC3F81FFFE00
0FFFF03F07FFFF00
0000007F0FFFFF80
0000007E0FFFFFC0
000000FE1FFFFFC0
000001FC1FFFFFE0
000001F81FC01FE0
000003F81F800FE0
000003F01F8007E0
000007E01F8007E0
00000FE01F8007E0
00000FC01F8007E0
00001FC01F8007E0
00003F801F8007E0
00003F001F8007E0
00007F001F8007E0
00007E001F800FE0
0000FE001FC00FE0
0001FC001FF07FE0
0001F8001FFFFFC0
0003F8001FFFFFC0
0003F0000FFFFFC0
0007F00007FFFF80
000FE00003FFFF00
001FC00000FFF800
ENDCHAR
STARTCHAR 0026
ENCODING 38
SWIDTH 704 0
DWIDTH 46 0
BBX 41 48 2 0
BITMAP
0007FFE00000
001FFFFE0000
007FFFFE0000
00FFFFFE0000
01FFFFFE0000
01FFFFFE0000
01FFFFFE0000
03FFFFFE0000
03FFF0000000
03FF80000000
03FF00000000
03FF00000000
01FF00000000
01FF00000000
01FF80000000
00FF80000000
00FFC0000000
007FE0000000
007FE0000000
003FF0000000
007FF8000000
00FFFC000000
01FFFC000400
03FFFE000E00
07FFFF003F00
0FFFFF807F00
1FFFFF80FF80
3FFCFFC1FF00
3FF8FFE3FE00
7FE07FE7FE00
7FE03FFFFC00
7FC01FFFF800
7FC01FFFF800
FFC00FFFF000
FFC007FFE000
FFC003FFC000
FFC007FF8000
FFC00FFFC000
7FE03FFFC000
7FFFFFFFE000
7FFFFFFFF000
3FFFFFFFF800
3FFFFFDFF800
1FFFFF8FFC00
0FFFFF07FE00
07FFFC07FF00
03FFF803FF00
00FFE001FF80
ENDCHAR
STARTCHAR 0027
ENCODING 39
SWIDTH 214 0
DWIDTH 14 0
BBX 10 17 2 32
BITMAP
FFC0
FFC0
FFC0
FFC0
FF80
FF80
FF80
FF80
FF80
7F80
7F80
7F80
7F80
7F80
7F80
7F80
7F80
ENDCHAR
STARTCHAR 0028
ENCODING 40
SWIDTH 382 0
DWIDTH 25 0
BBX 20 70 4 -14
BITMAP
001FF0
003FE0
003FE0
007FC0
00FFC0
00FF80
01FF80
01FF00
03FF00
03FE00
07FE00
07FC00
0FFC00
0FF800
1FF800
1FF800
1FF000
3FF000
3FF000
3FE000
7FE000
7FE000
7FE000
7FE000
7FC000
FFC000
FFC000
FFC000
FFC000
FFC000
FFC000
FFC000
FF8000
FF8000
FF8000
FF8000
FF8000
FF8000
FFC000
FFC000
FFC000
FFC000
FFC000
FFC000
FFC000
7FC000
7FE000
7FE000
7FE000
7FE000
3FF000
3FF000
3FF000
1FF000
1FF800
1FF800
0FFC00
0FFC00
07FC00
07FE00
03FE00
03FF00
01FF00
01FF80
00FF80
007FC0
007FC0
003FE0
001FF0
001FF0
ENDCHAR
STARTCHAR 0029
ENCODING 41
SWIDTH 382 0
DWIDTH 25 0
BBX 21 70 1 -14
BITMAP
FF8000
7FC000
3FE000
3FE000
1FF000
1FF800
0FF800
0FFC00
07FC00
07FE00
03FE00
03FF00
01FF00
01FF80
01FF80
00FFC0
00FFC0
00FFC0
007FC0
007FE0
007FE0
007FE0
003FE0
003FF0
003FF0
003FF0
003FF0
003FF0
003FF0
001FF0
001FF0
001FF0
001FF0
001FF0
001FF8
001FF0
001FF0
001FF0
001FF0
001FF0
003FF0
003FF0
003FF0
003FF0
003FF0
003FF0
003FE0
007FE0
007FE0
007FE0
007FC0
00FFC0
00FFC0
00FF80
01FF80
01FF80
01FF00
03FF00
03FF00
07FE00
07FE00
0FFC00
0FF800
1FF800
1FF000
3FF000
3FE000
7FC000
7FC000
FF8000
ENDCHAR
STARTCHAR 002A
ENCODING 42
SWIDTH 428 0
DWIDTH 28 0
BBX 23 22 3 26
BITMAP
007000
00F000
007800
007800
007C00
003C00
0FBE18
FFBF3C
FF9C7E
FF91FC
FF83F8
0007F0
0603E0
07C9C0
0F9C80
0F9E00
0FBF80
0F3FC0
0F0FE0
1F07F0
1E01E0
060040
ENDCHAR
STARTCHAR 002B
ENCODING 43
SWIDTH 612 0
DWIDTH 40 0
BBX 30 29 5 9
BITMAP
001FE000
001FE000
001FE000
001FE000
001FE000
001FE000
001FE000
001FE000
001FE000
001FE000
001FE000
FFFFFFFC
FFFFFFFC
FFFFFFFC
FFFFFFFC
FFFFFFFC
FFFFFFFC
FFFFFFFC
FFFFFFFC
001FE000
001FE000
001FE000
001FE000
001FE000
001FE000
001FE000
001FE000
001FE000
001FE000
ENDCHAR
STARTCHAR 002C
ENCODING 44
SWIDTH 229 0
DWIDTH 15 0
BBX 8 15 4 -6
BITMAP
FF
FF
FF
FF
FF
FF
FF
FF
3F
3F
7F
FF
FE
FE
F8
ENDCHAR
STARTCHAR 002D
ENCODING 45
SWIDTH 352 0
DWIDTH 23 0
BBX 20 8 1 15
BITMAP
FFFFF0
FFFFF0
FFFFF0
FFFFF0
FFFFF0
FFFFF0
FFFFF0
FFFFF0
ENDCHAR
STARTCHAR 002E
ENCODING 46
SWIDTH 229 0
DWIDTH 15 0
BBX 8 9 4 0
BITMAP
FF
FF
FF
FF
FF
FF
FF
FF
FF
ENDCHAR
STARTCHAR 002F
ENCODING 47
SWIDTH 459 0
DWIDTH 30 0
BBX 28 55 1 -5
BITMAP
00003FF0
00003FF0
00007FE0
00007FE0
00007FE0
0000FFC0
0000FFC0
0000FFC0
0001FF80
0001FF80
0001FF80
0003FF00
0003FF00
0003FF00
0007FE00
0007FE00
0007FE00
000FFC00
000FFC00
000FFC00
001FF800
001FF800
001FF800
003FF000
003FF000
003FF000
007FE000
007FE000
007FE000
00FFC000
00FFC000
00FFC000
01FF8000
01FF8000
01FF8000
03FF0000
03FF0000
03FF0000
07FE0000
07FE0000
07FE0000
0FFC0000
0FFC0000
0FFC0000
1FF80000
1FF80000
1FF80000
3FF00000
3FF00000
3FF00000
7FE00000
7FE00000
7FE00000
FFC00000
FFC00000
ENDCHAR
STARTCHAR 0030
ENCODING 48
SWIDTH 642 0
DWIDTH 42 0
BBX 35 49 4 0
BITMAP
007FFF8000
03FFFFF800
0FFFFFFC00
1FFFFFFE00
3FFFFFFF00
7FFFFFFF80
7FFFFFFF80
FFFFFFFFC0
FFFFFFFFC0
FFF001FFC0
FFC000FFC0
FFC0007FE0
FF80007FE0
FF80007FE0
FF80007FE0
FF80007FE0
FF80007FE0
FF80007FE0
FF80007FE0
FF80007FE0
FF80007FE0
FF80007FE0
FF80007FE0
FF80007FE0
FF80007FE0
FF80007FE0
FF80007FE0
FF80007FE0
FF80007FE0
FF80007FE0
FF80007FE0
FF80007FE0
FF80007FE0
FF80007FE0
FF80007FE0
FF80007FE0
FF80007FE0
FFC0007FE0
FFC000FFE0
FFE001FFC0
FFFC0FFFC0
FFFFFFFFC0
7FFFFFFFC0
7FFFFFFF80
3FFFFFFF80
3FFFFFFF00
1FFFFFFE00
07FFFFFC00
01FFFFE000
ENDCHAR
STARTCHAR 0031
ENCODING 49
SWIDTH 367 0
DWIDTH 24 0
BBX 18 49 2 0
BITMAP
007FC0
01FFC0
0FFFC0
3FFFC0
FFFFC0
FFFFC0
FFFFC0
FFFFC0
FFFFC0
FF7FC0
807FC0
007FC0
007FC0
007FC0
007FC0
007FC0
007FC0
007FC0
007FC0
007FC0
007FC0
007FC0
007FC0
007FC0
007FC0
007FC0
007FC0
007FC0
007FC0
007FC0
007FC0
007FC0
007FC0
007FC0
007FC0
007FC0
007FC0
007FC0
007FC0
007FC0
007FC0
007FC0
007FC0
007FC0
007FC0
007FC0
007FC0
007FC0
007FC0
ENDCHAR
STARTCHAR 0032
ENCODING 50
SWIDTH 581 0
DWIDTH 38 0
BBX 33 49 3 0
BITMAP
001FF80000
1FFFFF8000
7FFFFFE000
7FFFFFF000
7FFFFFF800
7FFFFFFC00
7FFFFFFC00
7FFFFFFE00
7FFFFFFE00
0000FFFE00
00000FFE00
000007FE00
000007FE00
000003FF00
000003FE00
000003FE00
000003FE00
000007FE00
000007FE00
000007FE00
00000FFC00
00001FFC00
00001FF800
00003FF800
00007FF000
0000FFE000
0001FFE000
0003FFC000
0007FF8000
000FFF0000
001FFE0000
003FFC0000
007FF80000
00FFF00000
01FFE00000
03FFC00000
07FF800000
0FFF000000
1FFE000000
3FFC000000
7FFFFFFF80
FFFFFFFF80
FFFFFFFF80
FFFFFFFF80
FFFFFFFF80
FFFFFFFF80
FFFFFFFF80
FFFFFFFF80
FFFFFFFF80
ENDCHAR
STARTCHAR 0033
ENCODING 51
SWIDTH 581 0
DWIDTH 38 0
BBX 33 49 2 0
BITMAP
001FF80000
1FFFFFC000
3FFFFFF000
3FFFFFF800
3FFFFFFC00
3FFFFFFC00
3FFFFFFE00
3FFFFFFE00
3FFFFFFF00
0000FFFF00
00000FFF00
000003FF00
000003FF00
000003FF00
000003FF00
000003FF00
000003FF00
000003FF00
000003FF00
00000FFE00
0007FFFE00
07FFFFFC00
07FFFFFC00
07FFFFF000
07FFFFE000
07FFFFF000
07FFFFF800
07FFFFFC00
03FFFFFE00
00000FFF00
000003FF00
000001FF00
000001FF80
000001FF80
000001FF80
000001FF80
000001FF80
000001FF80
000003FF80
000007FF80
FFFFFFFF00
FFFFFFFF00
FFFFFFFF00
FFFFFFFE00
FFFFFFFE00
FFFFFFFC00
FFFFFFF800
FFFFFFE000
1FFFFF8000
ENDCHAR
STARTCHAR 0034
ENCODING 52
SWIDTH 612 0
DWIDTH 40 0
BBX 38 48 1 0
BITMAP
0000FFC000
0001FF8000
0001FF8000
0003FF0000
0003FF0000
0007FE0000
0007FE0000
000FFC0000
000FFC0000
000FF80000
001FF80000
001FF00000
003FF00000
003FF00000
007FE00000
007FE07F80
00FFC07F80
00FFC0FF80
01FF80FF80
01FF80FF80
03FF01FF80
03FF01FF80
07FE01FF80
07FE01FF80
07FC01FF80
0FFC01FF80
0FF801FF80
1FF801FF80
1FF001FF80
3FF001FF80
3FFFFFFFFC
7FFFFFFFFC
7FFFFFFFFC
FFFFFFFFFC
7FFFFFFFFC
7FFFFFFFFC
3FFFFFFFF8
3FFFFFFFC0
000001FF80
000001FF80
000001FF80
000001FF80
000001FF80
000001FF80
000001FF80
000001FF80
000001FF80
000001FF80
ENDCHAR
STARTCHAR 0035
ENCODING 53
SWIDTH 612 0
DWIDTH 40 0
BBX 33 48 4 0
BITMAP
3FFFFFFE00
3FFFFFFE00
3FFFFFFE00
3FFFFFFE00
3FFFFFFE00
3FFFFFFE00
3FFFFFFE00
3FFFFFFE00
7FC0000000
7FC0000000
7FC0000000
7FC0000000
7FC0000000
7FC0000000
7FC0000000
7FC0000000
7FC0000000
7FC0000000
7FCFFFC000
7FFFFFF000
7FFFFFFC00
7FFFFFFC00
7FFFFFFE00
7FFFFFFF00
7FFFFFFF00
7FFFFFFF00
7FE007FF80
7FC003FF80
7FC001FF80
800001FF80
000001FF80
000001FF80
000001FF80
000001FF80
000001FF80
000001FF80
000001FF80
000003FF80
000007FF80
00003FFF00
FFFFFFFF00
FFFFFFFF00
FFFFFFFE00
FFFFFFFE00
FFFFFFFC00
FFFFFFF000
FFFFFFE000
3FFFFF0000
ENDCHAR
STARTCHAR 0036
ENCODING 54
SWIDTH 612 0
DWIDTH 40 0
BBX 34 49 3 0
BITMAP
0000FF8000
001FFFFE00
007FFFFE00
01FFFFFE00
03FFFFFE00
07FFFFFE00
07FFFFFE00
0FFFFFFE00
1FFFFFFE00
1FFF000000
3FFC000000
3FF8000000
3FF0000000
3FE0000000
7FE0000000
7FE0000000
7FC0000000
7FC0000000
7FC0000000
7FC0000000
FFCFFFE000
FFFFFFF800
FFFFFFFE00
FFFFFFFF00
FFFFFFFF00
FFFFFFFF80
FFFFFFFF80
FFFFFFFF80
FFC003FFC0
FFC001FFC0
FFC000FFC0
7FC000FFC0
7FC000FFC0
7FC000FFC0
7FC000FFC0
7FE000FFC0
7FE000FFC0
7FE000FFC0
7FF000FFC0
3FF801FFC0
3FFE0FFFC0
3FFFFFFF80
1FFFFFFF80
1FFFFFFF80
0FFFFFFF00
07FFFFFF00
03FFFFFE00
01FFFFF800
007FFFE000
ENDCHAR
STARTCHAR 0037
ENCODING 55
SWIDTH 551 0
DWIDTH 36 0
BBX 34 48 1 0
BITMAP
FFFFFFFF00
FFFFFFFF00
FFFFFFFF80
FFFFFFFFC0
FFFFFFFF80
FFFFFFFF80
FFFFFFFF80
FFFFFFFF00
FFFFFFFF00
000007FF00
000007FE00
00000FFE00
00000FFC00
00000FFC00
00001FFC00
00001FF800
00003FF800
00003FF800
00003FF000
00007FF000
00007FF000
00007FE000
0000FFE000
0000FFC000
0001FFC000
0001FFC000
0001FF8000
0003FF8000
0003FF8000
0003FF0000
0007FF0000
0007FF0000
000FFE0000
000FFE0000
000FFC0000
001FFC0000
001FFC0000
001FF80000
003FF80000
003FF80000
007FF00000
007FF00000
007FF00000
00FFE00000
00FFE00000
00FFC00000
01FFC00000
01FFC00000
ENDCHAR
STARTCHAR 0038
ENCODING 56
SWIDTH 627 0
DWIDTH 41 0
BBX 33 49 4 0
BITMAP
007FFF0000
03FFFFE000
0FFFFFF800
1FFFFFFC00
3FFFFFFE00
3FFFFFFE00
7FFFFFFF00
7FFFFFFF00
7FFFFFFF00
7FE003FF00
7FC001FF00
7FC001FF00
7FC001FF00
7FC001FF00
7FC001FF00
7FC001FF00
7FC001FF00
7FC001FF00
7FE003FF00
7FE007FF00
7FFFFFFE00
3FFFFFFE00
1FFFFFFC00
0FFFFFF000
07FFFFFC00
1FFFFFFE00
3FFFFFFF00
7FFFFFFF00
FFFC0FFF80
FFE003FF80
FFC001FF80
FFC001FF80
FF8000FF80
FF8000FF80
FF8000FF80
FF8000FF80
FF8000FF80
FF8000FF80
FFC001FF80
FFC001FF80
FFE003FF80
FFFFFFFF80
FFFFFFFF80
7FFFFFFF80
7FFFFFFF00
3FFFFFFE00
1FFFFFFE00
0FFFFFF800
03FFFFE000
ENDCHAR
STARTCHAR 0039
ENCODING 57
SWIDTH 612 0
DWIDTH 40 0
BBX 34 49 3 0
BITMAP
007FF80000
03FFFF8000
0FFFFFE000
1FFFFFF000
3FFFFFF800
7FFFFFFC00
7FFFFFFE00
7FFFFFFE00
FFFFFFFE00
FFF00FFF00
FFE007FF00
FFC003FF00
FFC001FF80
FFC001FF80
FFC001FF80
FFC001FF80
FFC000FF80
FFC000FF80
FFC000FF80
FFC000FF80
FFE000FF80
FFFFFFFF80
7FFFFFFFC0
7FFFFFFFC0
7FFFFFFFC0
3FFFFFFF80
1FFFFFFF80
0FFFFFFF80
03FFFFFF80
003FE0FF80
000000FF80
000000FF80
000001FF80
000001FF80
000001FF80
000001FF00
000003FF00
000003FF00
000007FF00
00001FFE00
0000FFFE00
1FFFFFFC00
1FFFFFFC00
1FFFFFF800
1FFFFFF000
1FFFFFE000
1FFFFFC000
1FFFFF0000
0FFFFC0000
ENDCHAR
STARTCHAR 003A
ENCODING 58
SWIDTH 229 0
DWIDTH 15 0
BBX 8 35 4 0
BITMAP
FF
FF
FF
FF
FF
FF
FF
FF
FF
00
00
00
00
00
00
00
00
00
00
00
00
00
00
00
00
00
FF
FF
FF
FF
FF
FF
FF
FF
FF
ENDCHAR
STARTCHAR 003B
ENCODING 59
SWIDTH 229 0
DWIDTH 15 0
BBX 8 41 4 -6
BITMAP
FF
FF
FF
FF
FF
FF
FF
FF
FF
00
00
00
00
00
00
00
00
00
00
00
00
00
00
00
00
00
FF
FF
FF
FF
FF
FF
FF
FF
3F
3F
7F
FF
FE
FE
F8
ENDCHAR
STARTCHAR 003C
ENCODING 60
SWIDTH 612 0
DWIDTH 40 0
BBX 27 26 6 10
BITMAP
00000020
000001E0
00000FE0
00007FE0
0003FFE0
001FFFE0
00FFFFE0
0FFFFFE0
7FFFFFE0
FFFFFF00
FFFFF000
FFFF0000
FFF00000
FFF00000
FFFE0000
FFFFE000
FFFFFE00
7FFFFFC0
0FFFFFE0
01FFFFE0
003FFFE0
0007FFE0
0000FFE0
00001FE0
000003E0
00000060
ENDCHAR
STARTCHAR 003D
ENCODING 61
SWIDTH 612 0
DWIDTH 40 0
BBX 30 24 5 11
BITMAP
FFFFFFFC
FFFFFFFC
FFFFFFFC
FFFFFFFC
FFFFFFFC
FFFFFFFC
FFFFFFFC
FFFFFFFC
00000000
00000000
00000000
00000000
00000000
00000000
00000000
00000000
FFFFFFFC
FFFFFFFC
FFFFFFFC
FFFFFFFC
FFFFFFFC
FFFFFFFC
FFFFFFFC
FFFFFFFC
ENDCHAR
STARTCHAR 003E
ENCODING 62
SWIDTH 612 0
DWIDTH 40 0
BBX 28 26 6 10
BITMAP
80000000
F0000000
FF000000
FFE00000
FFFC0000
FFFF8000
FFFFF000
FFFFFE00
FFFFFFE0
1FFFFFF0
01FFFFF0
000FFFF0
0000FFF0
0000FFF0
0007FFF0
007FFFF0
07FFFFF0
7FFFFFE0
FFFFFF00
FFFFF800
FFFFC000
FFFE0000
FFF00000
FF800000
FC000000
E0000000
ENDCHAR
STARTCHAR 003F
ENCODING 63
SWIDTH 535 0
DWIDTH 35 0
BBX 28 48 3 0
BITMAP
01FFE000
0FFFFC00
3FFFFE00
FFFFFF00
FFFFFF80
FFFFFFC0
FFFFFFC0
FFFFFFE0
FF8FFFE0
E000FFE0
80007FF0
00003FF0
00003FF0
00003FF0
00003FF0
00003FF0
00003FF0
00003FF0
00003FF0
00007FF0
00007FE0
0003FFE0
01FFFFE0
01FFFFC0
01FFFFC0
01FFFF80
01FFFF00
01FFFC00
01FFE000
01FC0000
01FC0000
01FC0000
01FC0000
01FC0000
01FC0000
00000000
00000000
00000000
00000000
03FC0000
03FE0000
03FE0000
03FE0000
03FE0000
03FE0000
03FE0000
03FE0000
03FC0000
ENDCHAR
STARTCHAR 0040
ENCODING 64
SWIDTH 887 0
DWIDTH 58 0
BBX 50 60 3 -12
BITMAP
00003FFFFF0000
003FFFFFFFC000
007FFFFFFFF000
007FFFFFFFFC00
007FFFFFFFFE00
007FFFFFFFFE00
007FFFFFFFFF00
0000000007FF80
0000000000FF80
00000000007F80
00000000003FC0
00000000003FC0
00000000001FC0
003FFFFE001FC0
01FFFFFFC01FC0
07FFFFFFE01FC0
0FFFFFFFF01FC0
1FFFFFFFF81FC0
3FFFFFFFF81FC0
3FFFFFFFFC1FC0
7FF8000FFC1FC0
7FC00003FC1FC0
7F800001FC1FC0
7F000001FC1FC0
FF000001FC1FC0
FF000001FC1FC0
FF000001FC1FC0
FF007FFFFC1FC0
FF01FFFFFC1FC0
FF03FFFFFC1FC0
FF07FFFFFC1FC0
FF07FFFFFC1FC0
FF07FC01FC1FC0
FF0FF801FC1FC0
FF0FF001FC1FC0
FF0FF001FC1FC0
FF0FF001FC1FC0
FF0FF001FC1FC0
FF0FF807FC1FC0
FF0FFC3FFC1FC0
FF07FFFFFC1FC0
FF07FFFFFC1FC0
FF07FFFFFC1FC0
FF03FFFDFC1FC0
FF01FFF8FC1FC0
FF00FFE0FC1FC0
FF007F80FC1FC0
FF000000001FC0
FF000000003FC0
7F800000003FC0
7F800000007FC0
7FE0000000FF80
3FF8000003FF80
3FFFFFFFFFFF80
1FFFFFFFFFFF00
1FFFFFFFFFFE00
0FFFFFFFFFFE00
07FFFFFFFFF800
01FFFFFFFFF000
003FFFFFFF8000
ENDCHAR
STARTCHAR 0041
ENCODING 65
SWIDTH 688 0
DWIDTH 45 0
BBX 43 48 1 0
BITMAP
0001FFF00000
0001FFF00000
0003FFF00000
0003FFF80000
0003FFF80000
0007FFF80000
0007FFFC0000
0007FFFC0000
000FFFFC0000
000FFBFE0000
000FFBFE0000
000FF3FE0000
001FF1FF0000
001FF1FF0000
001FE1FF0000
003FE1FF0000
003FE0FF8000
003FE0FF8000
007FC0FF8000
007FC07FC000
007FC07FC000
00FF807FC000
00FF807FE000
00FF803FE000
01FF803FE000
01FF003FF000
01FF003FF000
01FF001FF000
03FF001FF800
03FFFFFFF800
03FFFFFFF800
07FFFFFFF800
07FFFFFFFC00
07FFFFFFFC00
0FFFFFFFFC00
0FFFFFFFFE00
0FFFFFFFFE00
1FFFFFFFFE00
1FF80003FF00
1FF80003FF00
3FF00003FF00
3FF00001FF80
3FF00001FF80
3FE00001FF80
7FE00000FFC0
7FE00000FFC0
7FE00000FFC0
FFC00000FFE0
ENDCHAR
STARTCHAR 0042
ENCODING 66
SWIDTH 627 0
DWIDTH 41 0
BBX 35 48 4 0
BITMAP
FFFFFF8000
FFFFFFF000
FFFFFFF800
FFFFFFFC00
FFFFFFFE00
FFFFFFFF00
FFFFFFFF00
FFFFFFFF00
FFC00FFF80
FFC003FF80
FFC001FF80
FFC001FF80
FFC000FF80
FFC000FF80
FFC000FF80
FFC000FF80
FFC001FF00
FFC001FF00
FFC003FF00
FFC00FFE00
FFFFFFFC00
FFFFFFF800
FFFFFFF000
FFFFFFF000
FFFFFFFC00
FFFFFFFE00
FFFFFFFF00
FFC003FF80
FFC000FF80
FFC000FFC0
FFC0007FC0
FFC0007FC0
FFC0007FC0
FFC0007FE0
FFC0007FE0
FFC0007FE0
FFC0007FC0
FFC000FFC0
FFC001FFC0
FFFFFFFFC0
FFFFFFFFC0
FFFFFFFF80
FFFFFFFF80
FFFFFFFF00
FFFFFFFE00
FFFFFFFC00
FFFFFFF000
FFFFFF8000
ENDCHAR
STARTCHAR 0043
ENCODING 67
SWIDTH 581 0
DWIDTH 38 0
BBX 33 49 3 0
BITMAP
0007FE0000
003FFFF800
01FFFFFF80
03FFFFFF80
07FFFFFF80
0FFFFFFF80
1FFFFFFF80
1FFFFFFF80
3FFFFFFF80
3FFE000380
3FF8000000
7FF0000000
7FE0000000
7FE0000000
7FE0000000
7FC0000000
FFC0000000
FFC0000000
FFC0000000
FFC0000000
FFC0000000
FFC0000000
FFC0000000
FFC0000000
FFC0000000
FFC0000000
FFC0000000
FFC0000000
FFC0000000
FFC0000000
FFC0000000
FFC0000000
FFC0000000
FFC0000000
7FC0000000
7FE0000000
7FE0000000
7FF0000000
7FF0000000
3FFC000000
3FFF800F80
3FFFFFFF80
1FFFFFFF80
1FFFFFFF80
0FFFFFFF80
07FFFFFF80
03FFFFFF80
00FFFFFF80
003FFFF800
ENDCHAR
STARTCHAR 0044
ENCODING 68
SWIDTH 673 0
DWIDTH 44 0
BBX 37 48 4 0
BITMAP
FFFFFFE000
FFFFFFF800
FFFFFFFE00
FFFFFFFF00
FFFFFFFF80
FFFFFFFF80
FFFFFFFFC0
FFFFFFFFE0
FFC007FFE0
FFC000FFE0
FFC0007FF0
FFC0003FF0
FFC0003FF0
FFC0001FF8
FFC0001FF8
FFC0001FF8
FFC0001FF8
FFC0001FF8
FFC0000FF8
FFC0000FF8
FFC0000FF8
FFC0000FF8
FFC0000FF8
FFC0000FF8
FFC0000FF8
FFC0000FF8
FFC0000FF8
FFC0000FF8
FFC0000FF8
FFC0001FF8
FFC0001FF8
FFC0001FF8
FFC0001FF8
FFC0001FF8
FFC0003FF0
FFC0003FF0
FFC0007FF0
FFC000FFF0
FFC001FFE0
FFFFFFFFE0
FFFFFFFFC0
FFFFFFFFC0
FFFFFFFF80
FFFFFFFF00
FFFFFFFE00
FFFFFFFC00
FFFFFFF000
FFFFFF8000
ENDCHAR
STARTCHAR 0045
ENCODING 69
SWIDTH 596 0
DWIDTH 39 0
BBX 32 48 4 0
BITMAP
03FFFFFF
0FFFFFFF
1FFFFFFF
3FFFFFFF
3FFFFFFF
7FFFFFFF
7FFFFFFF
FFFFFFFF
FFFFFFFF
FFE00000
FFC00000
FFC00000
FFC00000
FFC00000
FFC00000
FFC00000
FFC00000
FFC00000
FFC00000
FFC00000
FFFFFFF8
FFFFFFF8
FFFFFFF8
FFFFFFF8
FFFFFFF8
FFFFFFF8
FFFFFFF8
FFFFFFF8
FFC00000
FFC00000
FFC00000
FFC00000
FFC00000
FFC00000
FFC00000
FFC00000
FFC00000
FFC00000
FFE00000
FFFFFFFF
FFFFFFFF
7FFFFFFF
7FFFFFFF
7FFFFFFF
3FFFFFFF
1FFFFFFF
0FFFFFFF
03FFFFFC
ENDCHAR
STARTCHAR 0046
ENCODING 70
SWIDTH 581 0
DWIDTH 38 0
BBX 32 48 4 0
BITMAP
03FFFFFF
0FFFFFFF
1FFFFFFF
3FFFFFFF
3FFFFFFF
7FFFFFFF
7FFFFFFF
FFFFFFFF
FFFFFFFF
FFE00000
FFC00000
FFC00000
FFC00000
FFC00000
FFC00000
FFC00000
FFC00000
FFC00000
FFC00000
FFC00000
FFC00000
FFFFFFF8
FFFFFFF8
FFFFFFF8
FFFFFFF8
FFFFFFF8
FFFFFFF8
FFFFFFF8
FFFFFFF8
FFC00000
FFC00000
FFC00000
FFC00000
FFC00000
FFC00000
FFC00000
FFC00000
FFC00000
FFC00000
FFC00000
FFC00000
FFC00000
FFC00000
FFC00000
FFC00000
FFC00000
FFC00000
FFC00000
ENDCHAR
STARTCHAR 0047
ENCODING 71
SWIDTH 673 0
DWIDTH 44 0
BBX 36 49 3 0
BITMAP
0003FF0000
003FFFFE00
00FFFFFFC0
03FFFFFFC0
07FFFFFFC0
0FFFFFFFC0
1FFFFFFFC0
1FFFFFFFC0
3FFFFFFFC0
3FFE0001C0
3FF8000000
7FF0000000
7FE0000000
7FE0000000
7FE0000000
7FC0000000
FFC0000000
FFC0000000
FFC0000000
FFC0000000
FFC0000000
FFC0007FF0
FFC03FFFF0
FFC03FFFF0
FFC03FFFF0
FFC03FFFF0
FFC03FFFF0
FFC03FFFF0
FFC03FFFF0
FFC03FFFF0
FFC0001FF0
FFC0001FF0
FFC0001FF0
FFC0001FF0
7FC0001FF0
7FE0001FF0
7FE0001FF0
7FF0001FF0
7FF0001FF0
3FFC007FF0
3FFFFFFFF0
3FFFFFFFF0
1FFFFFFFF0
1FFFFFFFF0
0FFFFFFFF0
07FFFFFFF0
03FFFFCFF0
01FFFF0FF0
007FF807F0
ENDCHAR
STARTCHAR 0048
ENCODING 72
SWIDTH 704 0
DWIDTH 46 0
BBX 38 48 4 0
BITMAP
FFC0000FFC
FFC0000FFC
FFC0000FFC
FFC0000FFC
FFC0000FFC
FFC0000FFC
FFC0000FFC
FFC0000FFC
FFC0000FFC
FFC0000FFC
FFC0000FFC
FFC0000FFC
FFC0000FFC
FFC0000FFC
FFC0000FFC
FFC0000FFC
FFC0000FFC
FFC0000FFC
FFC0000FFC
FFC0000FFC
FFFFFFFFFC
FFFFFFFFFC
FFFFFFFFFC
FFFFFFFFFC
FFFFFFFFFC
FFFFFFFFFC
FFFFFFFFFC
FFFFFFFFFC
FFC0000FFC
FFC0000FFC
FFC0000FFC
FFC0000FFC
FFC0000FFC
FFC0000FFC
FFC0000FFC
FFC0000FFC
FFC0000FFC
FFC0000FFC
FFC0000FFC
FFC0000FFC
FFC0000FFC
FFC0000FFC
FFC0000FFC
FFC0000FFC
FFC0000FFC
FFC0000FFC
FFC0000FFC
FFC0000FFC
ENDCHAR
STARTCHAR 0049
ENCODING 73
SWIDTH 275 0
DWIDTH 18 0
BBX 10 48 4 0
BITMAP
FFC0
FFC0
FFC0
FFC0
FFC0
FFC0
FFC0
FFC0
FFC0
FFC0
FFC0
FFC0
FFC0
FFC0
FFC0
FFC0
FFC0
FFC0
FFC0
FFC0
FFC0
FFC0
FFC0
FFC0
FFC0
FFC0
FFC0
FFC0
FFC0
FFC0
FFC0
FFC0
FFC0
FFC0
FFC0
FFC0
FFC0
FFC0
FFC0
FFC0
FFC0
FFC0
FFC0
FFC0
FFC0
FFC0
FFC0
FFC0
ENDCHAR
STARTCHAR 004A
ENCODING 74
SWIDTH 397 0
DWIDTH 26 0
BBX 20 48 2 0
BITMAP
001FF0
001FF0
001FF0
001FF0
001FF0
001FF0
001FF0
001FF0
001FF0
001FF0
001FF0
001FF0
001FF0
001FF0
001FF0
001FF0
001FF0
001FF0
001FF0
001FF0
001FF0
001FF0
001FF0
001FF0
001FF0
001FF0
001FF0
001FF0
001FF0
001FF0
001FF0
001FF0
001FF0
001FF0
001FF0
003FF0
003FF0
003FF0
007FF0
81FFF0
FFFFF0
FFFFE0
FFFFE0
FFFFE0
FFFFC0
FFFF80
FFFF00
7FFC00
ENDCHAR
STARTCHAR 004B
ENCODING 75
SWIDTH 642 0
DWIDTH 42 0
BBX 37 48 4 0
BITMAP
FFC0003FF8
FFC0007FF0
FFC0007FE0
FFC000FFE0
FFC000FFC0
FFC001FF80
FFC001FF80
FFC003FF00
FFC003FF00
FFC007FE00
FFC007FE00
FFC00FFC00
FFC00FFC00
FFC01FF800
FFC01FF800
FFC03FF000
FFC03FF000
FFC07FE000
FFC07FE000
FFC0FFC000
FFFFFFC000
FFFFFF8000
FFFFFF8000
FFFFFF0000
FFFFFF0000
FFFFFF8000
FFFFFF8000
FFFFFFC000
FFC0FFC000
FFC07FE000
FFC07FE000
FFC03FF000
FFC03FF800
FFC01FF800
FFC01FFC00
FFC00FFC00
FFC007FE00
FFC007FE00
FFC003FF00
FFC003FF00
FFC001FF80
FFC001FF80
FFC000FFC0
FFC000FFC0
FFC0007FE0
FFC0007FF0
FFC0003FF0
FFC0003FF8
ENDCHAR
STARTCHAR 004C
ENCODING 76
SWIDTH 535 0
DWIDTH 35 0
BBX 29 48 4 0
BITMAP
FFC00000
FFC00000
FFC00000
FFC00000
FFC00000
FFC00000
FFC00000
FFC00000
FFC00000
FFC00000
FFC00000
FFC00000
FFC00000
FFC00000
FFC00000
FFC00000
FFC00000
FFC00000
FFC00000
FFC00000
FFC00000
FFC00000
FFC00000
FFC00000
FFC00000
FFC00000
FFC00000
FFC00000
FFC00000
FFC00000
FFC00000
FFC00000
FFC00000
FFC00000
FFC00000
FFC00000
FFC00000
FFC00000
FFE00000
FFFFFFF8
7FFFFFF8
7FFFFFF8
7FFFFFF8
3FFFFFF8
3FFFFFF8
1FFFFFF8
07FFFFF8
01FFFFF8
ENDCHAR
STARTCHAR 004D
ENCODING 77
SWIDTH 887 0
DWIDTH 58 0
BBX 52 48 3 0
BITMAP
07FE000007FC00
07FE00000FFC00
07FF00000FFC00
07FF00000FFE00
07FF00001FFE00
07FF80001FFE00
07FF80001FFE00
07FF80001FFE00
0FFF80003FFE00
0FFFC0003FFE00
0FFFC0003FFE00
0FFFC0007FFF00
0FFFE0007FFF00
0FFFE0007FFF00
0FFFE000FFFF00
0FFFF000FFFF00
0FFFF000FFFF00
1FFFF000FDFF00
1FFFF001FDFF00
1FF3F801FDFF00
1FF3F801FDFF80
1FF3F803F9FF80
1FF3FC03F9FF80
1FF1FC03F8FF80
1FF1FC03F8FF80
3FF1FE07F0FF80
3FF1FE07F0FF80
3FF0FE07F0FF80
3FE0FE0FF0FFC0
3FE0FF0FE0FFC0
3FE0FF0FE0FFC0
3FE07F1FE07FC0
3FE07F9FC07FC0
3FE07F9FC07FC0
7FE03F9FC07FC0
7FE03FFFC07FC0
7FE03FFF807FC0
7FC03FFF807FE0
7FC01FFF807FE0
7FC01FFF807FE0
7FC01FFF003FE0
7FC01FFF003FE0
7FC00FFF003FE0
FFC00FFF003FE0
FFC00FFE003FE0
FFC007FE003FF0
FF8007FE003FF0
FF8007FC003FF0
ENDCHAR
STARTCHAR 004E
ENCODING 78
SWIDTH 704 0
DWIDTH 46 0
BBX 38 48 4 0
BITMAP
FF800007FC
FF800007FC
FFC00007FC
FFE00007FC
FFE00007FC
FFF00007FC
FFF80007FC
FFF80007FC
FFFC0007FC
FFFE0007FC
FFFE0007FC
FFFF0007FC
FFFF0007FC
FFFF8007FC
FFFFC007FC
FFFFC007FC
FFFFE007FC
FFDFF007FC
FFCFF007FC
FFCFF807FC
FFC7FC07FC
FFC3FC07FC
FFC3FE07FC
FFC1FE07FC
FFC0FF07FC
FFC0FF87FC
FFC07F87FC
FFC07FC7FC
FFC03FE7FC
FFC01FE7FC
FFC01FF7FC
FFC00FFFFC
FFC007FFFC
FFC007FFFC
FFC003FFFC
FFC003FFFC
FFC001FFFC
FFC000FFFC
FFC000FFFC
FFC0007FFC
FFC0003FFC
FFC0003FFC
FFC0001FFC
FFC0000FFC
FFC0000FFC
FFC00007FC
FFC00007FC
FFC00003FC
ENDCHAR
STARTCHAR 004F
ENCODING 79
SWIDTH 704 0
DWIDTH 46 0
BBX 40 49 3 0
BITMAP
0001FF8000
003FFFFC00
00FFFFFF00
03FFFFFF80
07FFFFFFC0
0FFFFFFFE0
0FFFFFFFF0
1FFFFFFFF8
1FFFFFFFF8
3FFE007FFC
3FF8001FFC
7FF0000FFC
7FE0000FFE
7FE00007FE
7FE00007FE
7FC00007FE
FFC00003FE
FFC00003FE
FFC00003FE
FFC00003FF
FFC00003FF
FFC00003FF
FFC00003FF
FFC00003FF
FFC00003FF
FFC00003FF
FFC00003FF
FFC00003FF
FFC00003FF
FFC00003FF
FFC00003FF
FFC00003FE
FFC00003FE
FFC00007FE
7FC00007FE
7FE00007FE
7FE00007FE
7FF0000FFC
7FF0001FFC
3FFC003FFC
3FFF81FFFC
1FFFFFFFF8
1FFFFFFFF8
0FFFFFFFF0
07FFFFFFE0
03FFFFFFC0
01FFFFFF80
00FFFFFE00
001FFFF000
ENDCHAR
STARTCHAR 0050
ENCODING 80
SWIDTH 627 0
DWIDTH 41 0
BBX 34 48 4 0
BITMAP
FFFFFFC000
FFFFFFF800
FFFFFFFC00
FFFFFFFE00
FFFFFFFF00
FFFFFFFF00
FFFFFFFF80
FFFFFFFF80
FFC007FFC0
FFC001FFC0
FFC000FFC0
FFC000FFC0
FFC000FFC0
FFC0007FC0
FFC0007FC0
FFC0007FC0
FFC0007FC0
FFC0007FC0
FFC0007FC0
FFC0007FC0
FFC000FFC0
FFC000FFC0
FFC001FFC0
FFC001FFC0
FFC00FFF80
FFFFFFFF80
FFFFFFFF80
FFFFFFFF00
FFFFFFFF00
FFFFFFFE00
FFFFFFFC00
FFFFFFF000
FFCFFFC000
FFC0000000
FFC0000000
FFC0000000
FFC0000000
FFC0000000
FFC0000000
FFC0000000
FFC0000000
FFC0000000
FFC0000000
FFC0000000
FFC0000000
FFC0000000
FFC0000000
FFC0000000
ENDCHAR
STARTCHAR 0051
ENCODING 81
SWIDTH 704 0
DWIDTH 46 0
BBX 40 62 3 -13
BITMAP
0001FF8000
003FFFFC00
00FFFFFF00
03FFFFFF80
07FFFFFFC0
0FFFFFFFE0
0FFFFFFFF0
1FFFFFFFF8
1FFFFFFFF8
3FFE007FFC
3FF8001FFC
7FF0000FFC
7FE0000FFE
7FE00007FE
7FE00007FE
7FC00007FE
FFC00003FE
FFC00003FE
FFC00003FE
FFC00003FF
FFC00003FF
FFC00003FF
FFC00003FF
FFC00003FF
FFC00003FF
FFC00003FF
FFC00003FF
FFC00003FF
FFC00003FF
FFC00003FF
FFC00003FF
FFC00003FE
FFC00003FE
FFC00007FE
7FC00007FE
7FE00007FE
7FE00007FE
7FF0000FFC
7FF0001FFC
3FFC003FFC
3FFF81FFFC
1FFFFFFFF8
1FFFFFFFF8
0FFFFFFFF0
07FFFFFFE0
03FFFFFFC0
01FFFFFF80
00FFFFFE00
001FFFF000
0000000000
0000000000
00003F0000
00003F8000
00003FC000
00003FF040
00001FFFC0
00001FFFC0
00000FFFC0
000007FFC0
000003FFC0
000000FFC0
0000001FC0
ENDCHAR
STARTCHAR 0052
ENCODING 82
SWIDTH 627 0
DWIDTH 41 0
BBX 35 48 4 0
BITMAP
FFFFFFC000
FFFFFFF000
FFFFFFFC00
FFFFFFFE00
FFFFFFFE00
FFFFFFFF00
FFFFFFFF00
FFFFFFFF80
FFC00FFF80
FFC003FF80
FFC001FFC0
FFC000FFC0
FFC000FFC0
FFC000FFC0
FFC000FFC0
FFC000FFC0
FFC000FFC0
FFC000FFC0
FFC000FFC0
FFC000FFC0
FFC001FF80
FFC003FF80
FFFFFFFF80
FFFFFFFF00
FFFFFFFF00
FFFFFFFE00
FFFFFFFC00
FFFFFFF800
FFFFFFE000
FFFFFFE000
FFC03FE000
FFC03FF000
FFC01FF000
FFC01FF800
FFC00FF800
FFC00FFC00
FFC00FFC00
FFC007FC00
FFC007FE00
FFC003FE00
FFC003FF00
FFC001FF00
FFC001FF80
FFC000FF80
FFC000FFC0
FFC000FFC0
FFC0007FE0
FFC0007FE0
ENDCHAR
STARTCHAR 0053
ENCODING 83
SWIDTH 581 0
DWIDTH 38 0
BBX 33 49 3 0
BITMAP
000FF80000
00FFFFF000
03FFFFFC00
0FFFFFFC00
1FFFFFFC00
3FFFFFFC00
3FFFFFFC00
7FFFFFFC00
7FFFFFFC00
FFF0000400
FFE0000000
FFC0000000
FF80000000
FF80000000
FF80000000
FF80000000
FF80000000
FF80000000
FFC0000000
FFE0000000
FFFFF80000
7FFFFFC000
7FFFFFF000
7FFFFFF800
3FFFFFFC00
1FFFFFFE00
0FFFFFFE00
07FFFFFF00
01FFFFFF00
0007FFFF00
000003FF00
000001FF00
000001FF80
000001FF80
000001FF80
000001FF80
000001FF80
000001FF00
000001FF00
000007FF00
7C007FFF00
7FFFFFFF00
7FFFFFFE00
7FFFFFFE00
7FFFFFFC00
7FFFFFF800
7FFFFFF000
7FFFFFE000
0FFFFF0000
ENDCHAR
STARTCHAR 0054
ENCODING 84
SWIDTH 581 0
DWIDTH 38 0
BBX 36 48 1 0
BITMAP
FFFFFFFFF0
FFFFFFFFF0
FFFFFFFFF0
FFFFFFFFF0
FFFFFFFFF0
FFFFFFFFF0
FFFFFFFFF0
FFFFFFFFF0
0007FE0000
0007FE0000
0007FE0000
0007FE0000
0007FE0000
0007FE0000
0007FE0000
0007FE0000
0007FE0000
0007FE0000
0007FE0000
0007FE0000
0007FE0000
0007FE0000
0007FE0000
0007FE0000
0007FE0000
0007FE0000
0007FE0000
0007FE0000
0007FE0000
0007FE0000
0007FE0000
0007FE0000
0007FE0000
0007FE0000
0007FE0000
0007FE0000
0007FE0000
0007FE0000
0007FE0000
0007FE0000
0007FE0000
0007FE0000
0007FE0000
0007FE0000
0007FE0000
0007FE0000
0007FE0000
0007FE0000
ENDCHAR
STARTCHAR 0055
ENCODING 85
SWIDTH 688 0
DWIDTH 45 0
BBX 37 48 4 0
BITMAP
FF80000FF8
FF80000FF8
FF80000FF8
FF80000FF8
FF80000FF8
FF80000FF8
FF80000FF8
FF80000FF8
FF80000FF8
FF80000FF8
FF80000FF8
FF80000FF8
FF80000FF8
FF80000FF8
FF80000FF8
FF80000FF8
FF80000FF8
FF80000FF8
FF80000FF8
FF80000FF8
FF80000FF8
FF80000FF8
FF80000FF8
FF80000FF8
FF80000FF8
FF80000FF8
FF80000FF8
FF80000FF8
FF80000FF8
FF80000FF8
FF80000FF8
FF80000FF8
FF80000FF8
FF80001FF8
FF80001FF8
FFC0001FF8
FFC0001FF8
FFE0003FF8
FFF000FFF8
7FFF07FFF0
7FFFFFFFF0
7FFFFFFFE0
3FFFFFFFE0
1FFFFFFFC0
0FFFFFFF80
07FFFFFE00
01FFFFFC00
003FFFE000
ENDCHAR
STARTCHAR 0056
ENCODING 86
SWIDTH 688 0
DWIDTH 45 0
BBX 43 48 1 0
BITMAP
FFC00000FFE0
7FE00000FFC0
7FE00000FFC0
7FE00000FF80
3FF00001FF80
3FF00001FF80
3FF00001FF80
1FF00003FF00
1FF80003FF00
1FF80003FF00
0FF80007FE00
0FFC0007FE00
0FFC0007FE00
0FFC0007FC00
07FE000FFC00
07FE000FFC00
07FE000FF800
03FE001FF800
03FF001FF800
03FF001FF000
01FF003FF000
01FF803FF000
01FF803FE000
00FF803FE000
00FFC07FE000
00FFC07FE000
007FC07FC000
007FC0FFC000
007FE0FFC000
007FE0FF8000
003FE1FF8000
003FF1FF8000
003FF1FF0000
001FF1FF0000
001FFBFF0000
001FFBFE0000
000FFBFE0000
000FFFFE0000
000FFFFC0000
0007FFFC0000
0007FFFC0000
0007FFFC0000
0003FFF80000
0003FFF80000
0003FFF80000
0003FFF00000
0001FFF00000
0001FFF00000
ENDCHAR
STARTCHAR 0057
ENCODING 87
SWIDTH 994 0
DWIDTH 65 0
BBX 63 48 1 0
BITMAP
FFC0001FF0000FFE
7FE0003FF0000FFC
7FE0003FF8000FFC
7FE0003FF8000FFC
7FE0003FF8000FF8
3FE0007FF8001FF8
3FF0007FFC001FF8
3FF0007FFC001FF8
3FF0007FFC001FF8
3FF000FFFC003FF0
1FF800FFFE003FF0
1FF800FFFE003FF0
1FF800FFFE003FF0
1FF801FFFE007FE0
0FF801FEFF007FE0
0FFC01FEFF007FE0
0FFC03FEFF007FE0
0FFC03FCFF807FC0
07FC03FC7F80FFC0
07FE03FC7F80FFC0
07FE07FC7F80FFC0
07FE07F83FC0FF80
03FE07F83FC1FF80
03FF07F83FC1FF80
03FF0FF03FC1FF80
03FF0FF01FE1FF00
01FF0FF01FE1FF00
01FF0FE01FE3FF00
01FF9FE00FE3FF00
01FF9FE00FF3FF00
01FF9FE00FF3FE00
00FFBFC00FF7FE00
00FFFFC007FFFE00
00FFFFC007FFFE00
00FFFF8007FFFC00
007FFF8003FFFC00
007FFF8003FFFC00
007FFF8003FFFC00
007FFF0003FFF800
003FFF0001FFF800
003FFF0001FFF800
003FFE0001FFF800
003FFE0000FFF000
001FFE0000FFF000
001FFE0000FFF000
001FFC0000FFF000
001FFC00007FE000
000FFC00007FE000
ENDCHAR
STARTCHAR 0058
ENCODING 88
SWIDTH 658 0
DWIDTH 43 0
BBX 41 48 1 0
BITMAP
FFE00003FF80
7FF00007FF00
3FF80007FE00
1FF8000FFE00
1FFC000FFC00
0FFC001FFC00
0FFE001FF800
07FF003FF000
03FF007FF000
03FF807FE000
01FFC0FFE000
01FFC0FFC000
00FFE1FF8000
007FE1FF8000
007FF3FF0000
003FFBFF0000
001FFFFE0000
001FFFFC0000
000FFFFC0000
000FFFF80000
0007FFF00000
0003FFF00000
0003FFE00000
0001FFE00000
0001FFC00000
0003FFE00000
0003FFF00000
0007FFF00000
000FFFF80000
000FFFF80000
001FFFFC0000
003FFFFE0000
003FF7FE0000
007FE7FF0000
007FE3FF8000
00FFC3FF8000
01FFC1FFC000
01FF80FFC000
03FF00FFE000
03FF007FF000
07FE003FF000
0FFE003FF800
0FFC001FFC00
1FFC001FFC00
3FF8000FFE00
3FF00007FE00
7FF00007FF00
FFE00003FF80
ENDCHAR
STARTCHAR 0059
ENCODING 89
SWIDTH 627 0
DWIDTH 41 0
BBX 39 48 1 0
BITMAP
FFE00007FE
7FE0000FFC
7FE0000FFC
3FF0000FF8
3FF0001FF8
1FF8001FF0
1FF8003FF0
1FF8003FE0
0FFC003FE0
0FFC007FE0
07FE007FC0
07FE00FFC0
03FE00FF80
03FF00FF80
01FF01FF00
01FF81FF00
01FF83FF00
00FF83FE00
00FFC3FE00
007FC7FC00
007FE7FC00
003FEFF800
003FEFF800
003FFFF800
001FFFF000
001FFFF000
000FFFE000
000FFFE000
0007FFC000
0007FFC000
0007FFC000
0003FF8000
0003FF8000
0001FF0000
0001FF0000
0001FF0000
0001FF0000
0001FF0000
0001FF0000
0001FF0000
0001FF0000
0001FF0000
0001FF0000
0001FF0000
0001FF0000
0001FF0000
0001FF0000
0001FF0000
ENDCHAR
STARTCHAR 005A
ENCODING 90
SWIDTH 581 0
DWIDTH 38 0
BBX 33 48 2 0
BITMAP
FFFFFFFF80
FFFFFFFF80
FFFFFFFF80
FFFFFFFF80
FFFFFFFF80
FFFFFFFF80
FFFFFFFF80
FFFFFFFF80
000007FF00
000007FF00
00000FFE00
00001FFC00
00001FFC00
00003FF800
00007FF000
00007FF000
0000FFE000
0001FFE000
0001FFC000
0003FF8000
0007FF8000
0007FF0000
000FFE0000
001FFE0000
001FFC0000
003FF80000
007FF80000
007FF00000
00FFE00000
01FFE00000
01FFC00000
03FF800000
03FF800000
07FF000000
0FFE000000
0FFE000000
1FFC000000
3FFC000000
3FF8000000
7FFFFFFF80
FFFFFFFF80
FFFFFFFF80
FFFFFFFF80
FFFFFFFF80
FFFFFFFF80
FFFFFFFF80
FFFFFFFF80
FFFFFFFF80
ENDCHAR
STARTCHAR 005B
ENCODING 91
SWIDTH 336 0
DWIDTH 22 0
BBX 17 69 4 -14
BITMAP
00FF80
07FF80
0FFF80
1FFF80
3FFF80
3FFF80
7FFF80
7FFF80
7FF000
FFE000
FFE000
FFC000
FFC000
FFC000
FFC000
FFC000
FFC000
FFC000
FFC000
FFC000
FFC000
FFC000
FFC000
FFC000
FFC000
FFC000
FFC000
FFC000
FFC000
FFC000
FFC000
FFC000
FFC000
FFC000
FFC000
FFC000
FFC000
FFC000
FFC000
FFC000
FFC000
FFC000
FFC000
FFC000
FFC000
FFC000
FFC000
FFC000
FFC000
FFC000
FFC000
FFC000
FFC000
FFC000
FFC000
FFC000
FFC000
FFC000
7FE000
7FE000
7FF800
7FFF80
3FFF80
3FFF80
1FFF80
1FFF80
07FF80
03FF80
003F80
ENDCHAR
STARTCHAR 005C
ENCODING 92
SWIDTH 459 0
DWIDTH 30 0
BBX 28 55 1 -5
BITMAP
FFC00000
7FC00000
7FE00000
7FE00000
3FE00000
3FF00000
3FF00000
1FF00000
1FF80000
1FF80000
0FF80000
0FFC0000
0FFC0000
07FC0000
07FE0000
07FE0000
03FE0000
03FF0000
03FF0000
01FF0000
01FF8000
01FF8000
00FF8000
00FFC000
00FFC000
007FC000
007FE000
007FE000
003FE000
003FF000
003FF000
001FF000
001FF800
001FF800
000FF800
000FFC00
000FFC00
0007FC00
0007FE00
0007FE00
0003FE00
0003FF00
0003FF00
0001FF00
0001FF80
0001FF80
0000FF80
0000FFC0
0000FFC0
00007FC0
00007FE0
00007FE0
00003FE0
00003FF0
00003FF0
ENDCHAR
STARTCHAR 005D
ENCODING 93
SWIDTH 336 0
DWIDTH 22 0
BBX 17 69 1 -14
BITMAP
FF8000
FFF000
FFF800
FFFC00
FFFE00
FFFF00
FFFF00
FFFF00
07FF80
03FF80
01FF80
01FF80
01FF80
01FF80
01FF80
01FF80
01FF80
01FF80
01FF80
01FF80
01FF80
01FF80
01FF80
01FF80
01FF80
01FF80
01FF80
01FF80
01FF80
01FF80
01FF80
01FF80
01FF80
01FF80
01FF80
01FF80
01FF80
01FF80
01FF80
01FF80
01FF80
01FF80
01FF80
01FF80
01FF80
01FF80
01FF80
01FF80
01FF80
01FF80
01FF80
01FF80
01FF80
01FF80
01FF80
01FF80
01FF80
01FF80
01FF80
03FF80
07FF00
FFFF00
FFFF00
FFFE00
FFFE00
FFFC00
FFF800
FFE000
FE0000
ENDCHAR
STARTCHAR 005E
ENCODING 94
SWIDTH 382 0
DWIDTH 25 0
BBX 20 9 3 35
BITMAP
03F800
03FC00
07FE00
0FFF00
1FFF00
1FBF80
3F1FC0
7E0FC0
FC07F0
ENDCHAR
STARTCHAR 005F
ENCODING 95
SWIDTH 612 0
DWIDTH 40 0
BBX 40 8 0 -13
BITMAP
FFFFFFFFFF
FFFFFFFFFF
FFFFFFFFFF
FFFFFFFFFF
FFFFFFFFFF
FFFFFFFFFF
FFFFFFFFFF
FFFFFFFFFF
ENDCHAR
STARTCHAR 0060
ENCODING 96
SWIDTH 229 0
DWIDTH 15 0
BBX 13 9 1 41
BITMAP
FF00
3F80
3FC0
1FC0
0FE0
07E0
03F0
03F0
01F8
ENDCHAR
STARTCHAR 0061
ENCODING 97
SWIDTH 551 0
DWIDTH 36 0
BBX 30 36 2 0
BITMAP
0000C000
03FFFF00
1FFFFFC0
1FFFFFF0
1FFFFFF0
1FFFFFF8
1FFFFFF8
1FFFFFFC
00003FFC
00000FFC
00000FFC
000007FC
000007FC
000007FC
000007FC
00FFFFFC
07FFFFFC
1FFFFFFC
3FFFFFFC
3FFFFFFC
7FF807FC
7FE007FC
FFC007FC
FFC007FC
FFC007FC
FFC007FC
FFC007FC
FFC007FC
FFE01FFC
FFF8FFFC
7FFFFFFC
7FFFFFFC
7FFFFFFC
3FFFF3FC
1FFFC3FC
07FE01FC
ENDCHAR
STARTCHAR 0062
ENCODING 98
SWIDTH 581 0
DWIDTH 38 0
BBX 32 50 4 0
BITMAP
FF800000
FF800000
FF800000
FF800000
FF800000
FF800000
FF800000
FF800000
FF800000
FF800000
FF800000
FF800000
FF800000
FF800000
FF803000
FF83FF80
FF9FFFE0
FFFFFFF0
FFFFFFF8
FFFFFFF8
FFFFFFFC
FFFFFFFC
FFF83FFC
FFE00FFE
FF800FFE
FF8007FE
FF8007FE
FF8003FE
FF8003FE
FF8003FE
FF8003FE
FF8003FF
FF8003FF
FF8003FF
FF8003FF
FF8003FE
FF8003FE
FF8007FE
FF8007FE
FF8007FE
FF800FFE
FFE01FFE
FFFFFFFC
FFFFFFFC
FFFFFFFC
FFFFFFF8
FFFFFFF0
FF9FFFE0
FF8FFFC0
FF03FF00
ENDCHAR
STARTCHAR 0063
ENCODING 99
SWIDTH 489 0
DWIDTH 32 0
BBX 27 36 3 0
BITMAP
00078000
00FFFF80
03FFFFE0
0FFFFFE0
1FFFFFE0
3FFFFFE0
3FFFFFE0
7FFFFFE0
7FF80000
7FE00000
FFE00000
FFC00000
FFC00000
FFC00000
FFC00000
FF800000
FF800000
FF800000
FF800000
FF800000
FF800000
FF800000
FFC00000
FFC00000
FFC00000
FFC00000
7FE00000
7FF00000
7FF80000
3FFFFFE0
3FFFFFE0
1FFFFFE0
0FFFFFE0
07FFFFE0
03FFFFE0
00FFFF00
ENDCHAR
STARTCHAR 0064
ENCODING 100
SWIDTH 581 0
DWIDTH 38 0
BBX 32 50 3 0
BITMAP
000003FF
000003FF
000003FF
000003FF
000003FF
000003FF
000003FF
000003FF
000003FF
000003FF
000003FF
000003FF
000003FF
000003FF
000E03FF
03FFF3FF
07FFFFFF
0FFFFFFF
1FFFFFFF
3FFFFFFF
7FFFFFFF
7FFFFFFF
7FF00FFF
7FE003FF
FFC003FF
FFC003FF
FFC003FF
FFC003FF
FFC003FF
FF8003FF
FF8003FF
FF8003FF
FF8003FF
FF8003FF
FF8003FF
FF8003FF
FFC003FF
FFC003FF
FFC003FF
FFC003FF
FFE003FF
7FF00FFF
7FFC7FFF
7FFFFFFF
3FFFFFFF
3FFFFFFF
1FFFFFFF
0FFFFBFF
07FFE1FF
01FF81FF
ENDCHAR
STARTCHAR 0065
ENCODING 101
SWIDTH 535 0
DWIDTH 35 0
BBX 29 36 3 0
BITMAP
000B8000
01FFFF00
07FFFFC0
0FFFFFE0
1FFFFFF0
3FFFFFF0
7FFFFFF8
7FFCFFF8
7FE00FF8
FFC00FF8
FFC007F8
FFC007F8
FF8007F8
FF8007F8
FF8007F8
FF800FF8
FFFFFFF8
FFFFFFF0
FFFFFFF0
FFFFFFE0
FFFFFF80
FFFFFC00
FF800000
FF800000
FFC00000
FFC00000
FFC00000
7FE00000
7FF80000
7FFFFFF0
3FFFFFF0
3FFFFFF0
1FFFFFF0
0FFFFFF0
03FFFFF0
00FFFF80
ENDCHAR
STARTCHAR 0066
ENCODING 102
SWIDTH 397 0
DWIDTH 26 0
BBX 24 50 1 0
BITMAP
000FFE
007FFF
00FFFF
01FFFF
01FFFF
03FFFF
03FFFF
03FFFF
07FF00
07FE00
07FE00
07FE00
07FE00
07FE00
07FE00
1FFFFF
FFFFFF
FFFFFF
FFFFFF
FFFFFF
FFFFFF
FFFFFF
FFFFFF
07FE00
07FE00
07FE00
07FE00
07FE00
07FE00
07FE00
07FE00
07FE00
07FE00
07FE00
07FE00
07FE00
07FE00
07FE00
07FE00
07FE00
07FE00
07FE00
07FE00
07FE00
07FE00
07FE00
07FE00
07FE00
07FE00
07FE00
ENDCHAR
STARTCHAR 0067
ENCODING 103
SWIDTH 581 0
DWIDTH 38 0
BBX 36 51 1 -16
BITMAP
001FFFFFF0
00FFFFFFF0
03FFFFFFF0
07FFFFFFF0
0FFFFFFFF0
0FFFFFFFC0
1FFFFFFE00
1FFC07FF00
3FF001FF00
3FE000FF00
3FE000FF80
3FE000FF80
3FE000FF80
3FE000FF80
1FE000FF80
1FF001FF80
1FF803FF80
0FFFFFFF00
0FFFFFFF00
07FFFFFF00
03FFFFFE00
00FFFFFC00
07FFFFF000
0FFFFFC000
1FF0000000
1FC0000000
3FC0000000
3FC0000000
3FF8000000
3FFFFFF800
3FFFFFFF00
1FFFFFFF80
0FFFFFFFC0
07FFFFFFC0
07FFFFFFE0
1FFFFFFFE0
3FE0007FE0
7FC0003FF0
7FC0003FF0
7F80003FF0
FF80003FF0
FFC0003FF0
FFC0003FE0
FFE0007FE0
FFFFFFFFE0
7FFFFFFFC0
7FFFFFFFC0
3FFFFFFF80
1FFFFFFF00
0FFFFFFE00
01FFFFF000
ENDCHAR
STARTCHAR 0068
ENCODING 104
SWIDTH 596 0
DWIDTH 39 0
BBX 31 50 4 0
BITMAP
FF800000
FF800000
FF800000
FF800000
FF800000
FF800000
FF800000
FF800000
FF800000
FF800000
FF800000
FF800000
FF800000
FF800000
FF803C00
FF81FFC0
FF8FFFF0
FF9FFFF8
FFFFFFF8
FFFFFFFC
FFFFFFFC
FFFFFFFE
FFFFFFFE
FFFC1FFE
FFE00FFE
FFC007FE
FF8007FE
FF8003FE
FF8003FE
FF8003FE
FF8003FE
FF8003FE
FF8003FE
FF8003FE
FF8003FE
FF8003FE
FF8003FE
FF8003FE
FF8003FE
FF8003FE
FF8003FE
FF8003FE
FF8003FE
FF8003FE
FF8003FE
FF8003FE
FF8003FE
FF8003FE
FF8003FE
FF8003FE
ENDCHAR
STARTCHAR 0069
ENCODING 105
SWIDTH 260 0
DWIDTH 17 0
BBX 10 49 4 0
BITMAP
FF80
FFC0
FFC0
FFC0
FFC0
FFC0
FFC0
FFC0
FF80
0000
0000
0000
0000
0000
FF80
FF80
FF80
FF80
FF80
FF80
FF80
FF80
FF80
FF80
FF80
FF80
FF80
FF80
FF80
FF80
FF80
FF80
FF80
FF80
FF80
FF80
FF80
FF80
FF80
FF80
FF80
FF80
FF80
FF80
FF80
FF80
FF80
FF80
FF80
ENDCHAR
STARTCHAR 006A
ENCODING 106
SWIDTH 260 0
DWIDTH 17 0
BBX 11 64 3 -15
BITMAP
7FC0
FFE0
FFE0
FFE0
FFE0
FFE0
FFE0
FFE0
7FC0
0000
0000
0000
0000
0000
7FC0
7FC0
7FC0
7FC0
7FC0
7FC0
7FC0
7FC0
7FC0
7FC0
7FC0
7FC0
7FC0
7FC0
7FC0
7FC0
7FC0
7FC0
7FC0
7FC0
7FC0
7FC0
7FC0
7FC0
7FC0
7FC0
7FC0
7FC0
7FC0
7FC0
7FC0
7FC0
7FC0
7FC0
7FC0
7FC0
7FC0
7FC0
7FC0
7FC0
7FC0
7FC0
7FC0
7FC0
7FC0
7F80
7F80
7F80
7F80
7F00
ENDCHAR
STARTCHAR 006B
ENCODING 107
SWIDTH 551 0
DWIDTH 36 0
BBX 32 50 4 0
BITMAP
FF800000
FF800000
FF800000
FF800000
FF800000
FF800000
FF800000
FF800000
FF800000
FF800000
FF800000
FF800000
FF800000
FF800000
FF800000
FF8007FE
FF800FFC
FF800FF8
FF801FF8
FF803FF0
FF803FF0
FF807FE0
FF80FFC0
FF80FFC0
FF81FF80
FF83FF00
FF83FF00
FFFFFE00
FFFFFE00
FFFFFC00
FFFFF800
FFFFF800
FFFFF800
FFFFFC00
FFFFFE00
FFFFFE00
FF83FF00
FF83FF00
FF81FF80
FF80FFC0
FF80FFC0
FF807FE0
FF803FE0
FF803FF0
FF801FF8
FF801FF8
FF800FFC
FF8007FE
FF8007FE
FF8003FF
ENDCHAR
STARTCHAR 006C
ENCODING 108
SWIDTH 306 0
DWIDTH 20 0
BBX 16 50 4 0
BITMAP
FF80
FF80
FF80
FF80
FF80
FF80
FF80
FF80
FF80
FF80
FF80
FF80
FF80
FF80
FF80
FF80
FF80
FF80
FF80
FF80
FF80
FF80
FF80
FF80
FF80
FF80
FF80
FF80
FF80
FF80
FF80
FF80
FF80
FF80
FF80
FF80
FF80
FF80
FF80
FFC0
FFC0
FFC0
FFF0
FFFF
7FFF
7FFF
3FFF
3FFF
0FFF
03FF
ENDCHAR
STARTCHAR 006D
ENCODING 109
SWIDTH 933 0
DWIDTH 61 0
BBX 53 36 4 0
BITMAP
00003E0000F000
FF01FFC007FF00
FF07FFF03FFFC0
FF9FFFF87FFFE0
FFFFFFF9FFFFE0
FFFFFFFFFFFFF0
FFFFFFFFFFFFF0
FFFFFFFFFFFFF8
FFFFFFFFFFFFF8
FFFC1FFFF07FF8
FFE00FFF803FF8
FFC007FF001FF8
FF8007FE001FF8
FF8003FE000FF8
FF8003FE000FF8
FF8003FE000FF8
FF8003FE000FF8
FF8003FE000FF8
FF8003FE000FF8
FF8003FE000FF8
FF8003FE000FF8
FF8003FE000FF8
FF8003FE000FF8
FF8003FE000FF8
FF8003FE000FF8
FF8003FE000FF8
FF8003FE000FF8
FF8003FE000FF8
FF8003FE000FF8
FF8003FE000FF8
FF8003FE000FF8
FF8003FE000FF8
FF8003FE000FF8
FF8003FE000FF8
FF8003FE000FF8
FF8003FE000FF8
ENDCHAR
STARTCHAR 006E
ENCODING 110
SWIDTH 596 0
DWIDTH 39 0
BBX 31 36 4 0
BITMAP
00001C00
FF01FFC0
FF0FFFF0
FF9FFFF8
FFFFFFF8
FFFFFFFC
FFFFFFFC
FFFFFFFE
FFFFFFFE
FFFC1FFE
FFE00FFE
FFC007FE
FF8007FE
FF8003FE
FF8003FE
FF8003FE
FF8003FE
FF8003FE
FF8003FE
FF8003FE
FF8003FE
FF8003FE
FF8003FE
FF8003FE
FF8003FE
FF8003FE
FF8003FE
FF8003FE
FF8003FE
FF8003FE
FF8003FE
FF8003FE
FF8003FE
FF8003FE
FF8003FE
FF8003FE
ENDCHAR
STARTCHAR 006F
ENCODING 111
SWIDTH 581 0
DWIDTH 38 0
BBX 32 36 3 0
BITMAP
0003C000
01FFFF00
07FFFFC0
0FFFFFF0
1FFFFFF8
3FFFFFF8
3FFFFFFC
7FFFFFFC
7FF81FFE
7FE00FFE
FFC007FE
FFC007FE
FFC003FF
FFC003FF
FF8003FF
FF8003FF
FF8003FF
FF8003FF
FF8003FF
FF8003FF
FF8003FF
FF8003FF
FFC003FF
FFC003FF
FFC003FF
FFC007FE
FFE007FE
7FE00FFE
7FFE7FFE
7FFFFFFC
3FFFFFFC
1FFFFFF8
1FFFFFF0
0FFFFFE0
03FFFFC0
00FFFE00
ENDCHAR
STARTCHAR 0070
ENCODING 112
SWIDTH 581 0
DWIDTH 38 0
BBX 32 51 4 -15
BITMAP
00003000
FF03FF00
FF8FFFC0
FFBFFFE0
FFFFFFF0
FFFFFFF8
FFFFFFF8
FFFFFFFC
FFF83FFC
FFE01FFC
FF800FFE
FF8007FE
FF8007FE
FF8007FE
FF8003FE
FF8003FE
FF8003FE
FF8003FF
FF8003FF
FF8003FF
FF8003FE
FF8003FE
FF8003FE
FF8007FE
FF8007FE
FF8007FE
FF800FFE
FFE01FFE
FFFFFFFC
FFFFFFFC
FFFFFFFC
FFFFFFF8
FFFFFFF0
FFFFFFF0
FFBFFFC0
FF87FF80
FF800000
FF800000
FF800000
FF800000
FF800000
FF800000
FF800000
FF800000
FF800000
FF800000
FF800000
FF800000
FF800000
FF800000
FF800000
ENDCHAR
STARTCHAR 0071
ENCODING 113
SWIDTH 581 0
DWIDTH 38 0
BBX 32 51 3 -15
BITMAP
000FC000
01FFFFFC
07FFFFFF
0FFFFFFF
1FFFFFFF
3FFFFFFF
3FFFFFFF
7FFFFFFF
7FF803FF
7FE003FF
FFE003FF
FFC003FF
FFC003FF
FFC003FF
FFC003FF
FF8003FF
FF8003FF
FF8003FF
FF8003FF
FF8003FF
FF8003FF
FF8003FF
FFC003FF
FFC003FF
FFC003FF
FFC003FF
FFE003FF
7FF00FFF
7FFC7FFF
7FFFFFFF
3FFFFFFF
3FFFFFFF
1FFFFFFF
0FFFFBFF
07FFE3FF
01FF83FF
000003FF
000003FF
000003FF
000003FF
000003FF
000003FF
000003FF
000003FF
000003FF
000003FF
000003FF
000003FF
000003FF
000003FF
000003FF
ENDCHAR
STARTCHAR 0072
ENCODING 114
SWIDTH 428 0
DWIDTH 28 0
BBX 22 36 4 0
BITMAP
000010
FE01FC
FF07FC
FF0FFC
FF9FFC
FFBFFC
FFFFFC
FFFFFC
FFFFFC
FFFFFC
FFFF8C
FFF800
FFE000
FFC000
FF8000
FF8000
FF8000
FF8000
FF8000
FF8000
FF8000
FF8000
FF8000
FF8000
FF8000
FF8000
FF8000
FF8000
FF8000
FF8000
FF8000
FF8000
FF8000
FF8000
FF8000
FF8000
ENDCHAR
STARTCHAR 0073
ENCODING 115
SWIDTH 505 0
DWIDTH 33 0
BBX 29 35 2 0
BITMAP
01FFFF00
0FFFFFE0
1FFFFFE0
3FFFFFE0
7FFFFFE0
7FFFFFE0
7FFFFFE0
FFC00000
FF800000
FF800000
FF800000
FF800000
FF800000
FFE00000
FFFFFF00
7FFFFFC0
7FFFFFE0
3FFFFFE0
3FFFFFF0
0FFFFFF0
07FFFFF0
00007FF8
00000FF8
00000FF8
00000FF8
00000FF8
00000FF8
00000FF8
7FFFFFF0
7FFFFFF0
7FFFFFF0
7FFFFFE0
7FFFFFC0
7FFFFF80
0FFFFC00
ENDCHAR
STARTCHAR 0074
ENCODING 116
SWIDTH 382 0
DWIDTH 25 0
BBX 23 45 1 0
BITMAP
01FC00
01FC00
01FC00
03FC00
03FC00
03FC00
03FC00
03FC00
03FC00
03FC00
1FFFFE
FFFFFE
FFFFFE
FFFFFE
FFFFFE
FFFFFE
FFFFFE
FFFFFE
07FC00
07FC00
07FC00
07FC00
07FC00
07FC00
07FC00
07FC00
07FC00
07FC00
07FC00
07FC00
07FC00
07FC00
07FC00
07FE00
07FE00
07FE00
07FF00
07FFE0
07FFFC
03FFFC
03FFFC
01FFFC
00FFFC
007FFC
001FFC
ENDCHAR
STARTCHAR 0075
ENCODING 117
SWIDTH 596 0
DWIDTH 39 0
BBX 31 35 4 0
BITMAP
FF8003FE
FF8003FE
FF8003FE
FF8003FE
FF8003FE
FF8003FE
FF8003FE
FF8003FE
FF8003FE
FF8003FE
FF8003FE
FF8003FE
FF8003FE
FF8003FE
FF8003FE
FF8003FE
FF8003FE
FF8003FE
FF8003FE
FF8003FE
FF8003FE
FF8003FE
FF8003FE
FF8003FE
FFC007FE
FFC00FFE
FFF07FFE
FFFFFFFE
FFFFFFFE
FFFFFFFE
7FFFFFFE
7FFFFBFE
3FFFF3FE
1FFFC1FE
07FE01FE
ENDCHAR
STARTCHAR 0076
ENCODING 118
SWIDTH 566 0
DWIDTH 37 0
BBX 35 35 1 0
BITMAP
FFC0007FE0
FFC0007FC0
7FE000FFC0
7FE000FFC0
7FE000FF80
3FE001FF80
3FF001FF80
3FF001FF00
1FF001FF00
1FF803FF00
1FF803FE00
0FF803FE00
0FF807FE00
0FFC07FC00
07FC07FC00
07FC0FFC00
07FE0FF800
03FE0FF800
03FE0FF800
03FE1FF000
01FF1FF000
01FF1FE000
01FF3FE000
00FFBFE000
00FFBFC000
00FFBFC000
007FFFC000
007FFF8000
007FFF8000
003FFF8000
003FFF0000
003FFF0000
001FFF0000
001FFE0000
001FFE0000
ENDCHAR
STARTCHAR 0077
ENCODING 119
SWIDTH 826 0
DWIDTH 54 0
BBX 52 35 1 0
BITMAP
FFC003FC003FF0
FFC003FE003FF0
FFC003FE003FF0
7FE007FE007FE0
7FE007FE007FE0
7FE007FF007FE0
3FE00FFF007FC0
3FE00FFF007FC0
3FF00FFF807FC0
3FF00FFF80FFC0
1FF01FFF80FF80
1FF01FFF80FF80
1FF01FFFC0FF80
1FF81FFFC0FF80
0FF83FFFC1FF00
0FF83F9FC1FF00
0FF83F9FE1FF00
0FFC3F9FE1FF00
07FC7F9FE1FE00
07FC7F0FE3FE00
07FC7F0FF3FE00
07FC7F0FF3FE00
03FEFE07F3FC00
03FEFE07F3FC00
03FEFE07FFFC00
01FFFC03FFFC00
01FFFC03FFF800
01FFFC03FFF800
01FFFC03FFF800
00FFF801FFF000
00FFF801FFF000
00FFF801FFF000
00FFF000FFF000
007FF000FFE000
007FF000FFE000
ENDCHAR
STARTCHAR 0078
ENCODING 120
SWIDTH 535 0
DWIDTH 35 0
BBX 34 35 1 0
BITMAP
FFC000FFC0
7FC001FF80
7FE003FF00
3FF003FE00
1FF807FE00
1FF80FFC00
0FFC0FFC00
07FE1FF800
03FE1FF000
03FF3FF000
01FFFFE000
00FFFFC000
00FFFFC000
007FFF8000
003FFF0000
003FFF0000
001FFE0000
001FFC0000
003FFC0000
003FFE0000
007FFF0000
00FFFF0000
00FFFF8000
01FFFFC000
03FF7FC000
03FE7FE000
07FE3FF000
07FC1FF800
0FFC1FF800
1FF80FFC00
1FF007FE00
3FF003FE00
7FE003FF00
7FC001FF80
FFC000FFC0
ENDCHAR
STARTCHAR 0079
ENCODING 121
SWIDTH 566 0
DWIDTH 37 0
BBX 35 50 1 -15
BITMAP
FFC0007FE0
FFC0007FE0
FFC0007FE0
7FE0007FC0
7FE000FFC0
7FE000FFC0
7FE000FFC0
3FF000FFC0
3FF000FF80
3FF001FF80
3FF001FF80
1FF801FF80
1FF801FF00
1FF803FF00
0FF803FF00
0FF803FF00
0FFC03FE00
0FFC07FE00
07FC07FE00
07FC07FE00
07FE07FC00
07FE0FFC00
03FE0FFC00
03FE0FFC00
03FF0FFC00
03FF0FF800
01FF9FF800
01FFFFF800
01FFFFF800
00FFFFF000
00FFFFF000
007FFFF000
003FFFF000
000FFFE000
0003FFE000
00007FE000
00007FE000
00007FC000
00007FC000
0000FFC000
0000FFC000
0000FF8000
0000FF8000
0001FF8000
0001FF8000
0001FF0000
0001FF0000
0003FE0000
0003FE0000
0003FC0000
ENDCHAR
STARTCHAR 007A
ENCODING 122
SWIDTH 505 0
DWIDTH 33 0
BBX 29 35 2 0
BITMAP
FFFFFFF8
FFFFFFF8
FFFFFFF8
FFFFFFF8
FFFFFFF8
FFFFFFF8
FFFFFFF8
FFFFFFF0
00007FE0
0000FFE0
0001FFC0
0003FF80
0003FF00
0007FE00
000FFE00
001FFC00
003FF800
007FF000
007FE000
00FFC000
01FFC000
03FF8000
07FF0000
07FE0000
0FFC0000
1FFC0000
3FF80000
7FFFFFF8
7FFFFFF8
7FFFFFF8
7FFFFFF8
7FFFFFF8
7FFFFFF8
7FFFFFF8
7FFFFFF8
ENDCHAR
STARTCHAR 007B
ENCODING 123
SWIDTH 321 0
DWIDTH 21 0
BBX 19 69 1 -14
BITMAP
0003E0
003FE0
007FE0
00FFE0
01FFE0
03FFE0
07FFE0
07FFE0
07FF00
07FE00
0FFE00
0FFC00
0FFC00
0FFC00
0FFC00
0FFC00
0FFC00
0FFC00
0FFC00
0FFC00
0FFC00
0FFC00
0FFC00
0FFC00
0FFC00
0FFC00
0FFC00
1FFC00
7FFC00
FFFC00
FFF800
FFF000
FFE000
FF8000
FFE000
FFF800
FFF800
FFFC00
1FFC00
0FFC00
0FFC00
0FFC00
0FFC00
0FFC00
0FFC00
0FFC00
0FFC00
0FFC00
0FFC00
0FFC00
0FFC00
0FFC00
0FFC00
0FFC00
0FFC00
0FFC00
0FFC00
0FFC00
0FFE00
0FFE00
07FF00
07FFE0
07FFE0
03FFE0
03FFE0
01FFE0
00FFE0
003FE0
0003E0
ENDCHAR
STARTCHAR 007C
ENCODING 124
SWIDTH 244 0
DWIDTH 16 0
BBX 8 55 4 -5
BITMAP
FF
FF
FF
FF
FF
FF
FF
FF
FF
FF
FF
FF
FF
FF
FF
FF
FF
FF
FF
FF
FF
FF
FF
FF
FF
FF
FF
FF
FF
FF
FF
FF
FF
FF
FF
FF
FF
FF
FF
FF
FF
FF
FF
FF
FF
FF
FF
FF
FF
FF
FF
FF
FF
FF
FF
ENDCHAR
STARTCHAR 007D
ENCODING 125
SWIDTH 321 0
DWIDTH 21 0
BBX 19 69 1 -14
BITMAP
F80000
FF0000
FFC000
FFE000
FFF000
FFF800
FFF800
FFFC00
1FFC00
0FFC00
0FFC00
0FFC00
0FFC00
0FFC00
07FC00
07FC00
07FC00
07FC00
07FC00
07FC00
07FC00
07FC00
07FC00
07FC00
07FC00
07FC00
07FE00
07FE00
07FFC0
07FFE0
03FFE0
03FFE0
00FFE0
003FE0
01FFE0
03FFE0
07FFE0
07FFE0
07FF00
07FE00
07FC00
07FC00
07FC00
07FC00
07FC00
07FC00
07FC00
07FC00
07FC00
07FC00
07FC00
07FC00
07FC00
07FC00
07FC00
07FC00
0FFC00
0FFC00
0FFC00
0FFC00
1FFC00
FFFC00
FFFC00
FFF800
FFF800
FFF000
FFC000
FF8000
F00000
ENDCHAR
STARTCHAR 007E
ENCODING 126
SWIDTH 428 0
DWIDTH 28 0
BBX 22 8 3 35
BITMAP
0FC008
1FF018
7FFC7C
FFFFFC
FFFFF8
F8FFF0
E03FE0
400FC0
ENDCHAR
STARTCHAR 00A1
ENCODING 161
SWIDTH 275 0
DWIDTH 18 0
BBX 10 48 4 -13
BITMAP
7F80
7F80
7F80
7F80
7F80
7F80
7F80
7F80
7F80
0000
0000
0000
0000
7F80
7F80
7F80
7F80
7F80
7F80
7F80
7F80
7F80
7F80
7F80
7F80
7F80
7F80
7F80
7F80
7F80
7F80
7F80
7F80
7F80
7F80
7F80
7F80
FF80
FF80
FF80
FFC0
FFC0
FFC0
FFC0
FFC0
FFC0
FFC0
FFC0
ENDCHAR
STARTCHAR 00A2
ENCODING 162
SWIDTH 489 0
DWIDTH 32 0
BBX 28 47 2 -6
BITMAP
0007C000
0007C000
0007C000
0007C000
0007C000
0007C000
007FF800
03FFFF80
07FFFFE0
0FFFFFE0
1FFFFFE0
3FFFFFE0
3FFFFFE0
7FFE00E0
7FF00000
7FE00000
7FE00000
FFC00000
FFC00000
FFC00000
FFC00000
FFC00000
FFC00000
FFC00000
FFC00000
FFC00000
FFC00000
FFC00000
FFC00000
FFC00000
7FC00000
7FE00000
7FF00000
7FF80030
3FFFFFF0
3FFFFFF0
1FFFFFF0
1FFFFFF0
0FFFFFF0
03FFFFE0
00FFFF00
0007C000
0007C000
0007C000
0007C000
0007C000
0007C000
ENDCHAR
STARTCHAR 00A3
ENCODING 163
SWIDTH 612 0
DWIDTH 40 0
BBX 33 49 4 0
BITMAP
00000F0000
0003FFFF00
000FFFFF00
003FFFFF00
007FFFFF00
00FFFFFF00
00FFFFFF00
01FFFFFF00
01FFFFFF00
01FFE00000
03FF800000
03FF000000
03FF000000
03FF000000
03FF000000
03FF000000
03FF000000
03FF000000
03FF000000
03FF000000
03FF000000
03FF000000
3FFFFFE000
FFFFFFE000
FFFFFFE000
FFFFFFE000
FFFFFFE000
FFFFFFE000
03FF000000
03FF000000
03FF000000
03FF000000
03FF000000
03FF000000
03FF000000
03FF000000
03FF000000
03FF000000
03FF000000
03FF000000
07FFFFFF80
FFFFFFFF80
FFFFFFFF80
FFFFFFFF80
FFFFFFFF80
FFFFFFFF80
FFFFFFFF80
FFFFFFFF80
FFFFFFFF80
ENDCHAR
STARTCHAR 00A4
ENCODING 164
SWIDTH 612 0
DWIDTH 40 0
BBX 31 31 4 8
BITMAP
08000010
1C000038
3E00007C
7F0000FE
FF87C1FE
3FDFFBFC
1FFFFFF8
0FFFFFF0
07FFFFE0
03FC3FC0
03F00FC0
07E007E0
07C003E0
07C003E0
0F8003E0
0F8001E0
0F8003E0
0FC003E0
07C003E0
07C007E0
07E00FC0
03F81FC0
07FFFFE0
0FFFFFF0
1FFFFFF8
3FFFFFFC
7F8FF1FE
FF0000FE
7E00007C
3C000038
18000010
ENDCHAR
STARTCHAR 00A5
ENCODING 165
SWIDTH 612 0
DWIDTH 40 0
BBX 39 48 0 0
BITMAP
FFC00007FE
7FE0000FFC
7FE0000FF8
7FE0001FF8
3FF0001FF8
3FF0001FF0
1FF8003FF0
1FF8003FE0
0FF8007FE0
0FFC007FC0
0FFC007FC0
07FE00FFC0
07FE00FF80
03FE01FF80
03FF01FF00
01FF01FF00
01FF83FE00
00FF83FE00
00FF87FC00
00FFC7FC00
007FC7FC00
007FEFF800
003FEFF800
003FFFF000
001FFFF000
001FFFE000
07FFFFFFE0
07FFFFFFE0
07FFFFFFE0
07FFFFFFE0
07FFFFFFE0
0003FF8000
0003FF0000
0003FF0000
0003FF0000
07FFFFFFE0
07FFFFFFE0
07FFFFFFE0
07FFFFFFE0
07FFFFFFE0
0003FF0000
0003FF0000
0003FF0000
0003FF0000
0003FF0000
0003FF0000
0003FF0000
0003FF0000
ENDCHAR
STARTCHAR 00A6
ENCODING 166
SWIDTH 244 0
DWIDTH 16 0
BBX 8 55 4 -5
BITMAP
FF
FF
FF
FF
FF
FF
FF
FF
FF
FF
FF
FF
FF
FF
FF
FF
FF
FF
FF
FF
FF
FF
00
00
00
00
00
00
00
00
00
00
00
FF
FF
FF
FF
FF
FF
FF
FF
FF
FF
FF
FF
FF
FF
FF
FF
FF
FF
FF
FF
FF
FF
ENDCHAR
STARTCHAR 00A7
ENCODING 167
SWIDTH 535 0
DWIDTH 35 0
BBX 30 51 3 0
BITMAP
03FFFF80
0FFFFFE0
1FFFFFE0
3FFFFFE0
7FFFFFE0
7FFFFFE0
7FFFFFE0
FFFFFFE0
FFC00000
FFC00000
FF800000
FF800000
FFC00000
FFC00000
FFFFF000
7FFFFFC0
7FFFFFF0
7FFFFFF0
3FFFFFF8
1FFFFFF8
0FFFFFFC
3FFFFFFC
7FC00FFC
FF800FFC
FF8007FC
FF8007FC
FF8007FC
FF800FF8
FF800FF8
FFE01FF0
FFFFFFE0
FFFFFFC0
FFFFFFE0
7FFFFFF0
7FFFFFF8
1FFFFFF8
07FFFFF8
00001FF8
00000FF8
00000FF8
00000FF8
00000FF8
00000FF8
00007FF8
3FFFFFF8
3FFFFFF8
3FFFFFF0
3FFFFFF0
3FFFFFE0
3FFFFFC0
3FFFFF00
ENDCHAR
STARTCHAR 00A8
ENCODING 168
SWIDTH 397 0
DWIDTH 26 0
BBX 20 9 3 42
BITMAP
7E07E0
FE07F0
FE07F0
FE07F0
FE07F0
FE07F0
FE07F0
FE07F0
FE07F0
ENDCHAR
STARTCHAR 00A9
ENCODING 169
SWIDTH 811 0
DWIDTH 53 0
BBX 47 48 3 0
BITMAP
0003FFFFE000
003FFFFFFC00
00FFFFFFFF00
03FFFFFFFF80
07FFFFFFFFC0
0FFF0000FFE0
0FF000000FF0
1FE0000007F0
1F80000003F8
3F80000001F8
3F003FF801FC
7F00FFFF80FC
7E01FFFF80FC
7E03FFFF80FC
7E07FFFF807E
FC07F807807E
FC0FE000007E
FC0FC000007E
FC0FC000007E
FC0FC000007E
FC0F8000007E
FC0F8000007E
FC1F8000003E
FC1F8000003E
F81F8000003E
F81F8000003E
FC1F8000007E
FC0F8000007E
FC0FC000007E
FC0FC000007E
FC0FC000007E
FC0FE000007E
7C07F001807E
7E07FFFF807C
7E03FFFF80FC
7E03FFFF80FC
3F00FFFF80FC
3F007FFE01F8
1F80000001F8
1FC0000003F0
0FE0000007F0
0FF000000FE0
07FE00007FE0
03FFFFFFFFC0
01FFFFFFFF80
00FFFFFFFE00
003FFFFFFC00
0007FFFFE000
ENDCHAR
STARTCHAR 00AA
ENCODING 170
SWIDTH 413 0
DWIDTH 27 0
BBX 24 32 1 17
BITMAP
07FFE0
3FFFF8
3FFFFC
3FFFFE
3FFFFE
3FFFFE
0003FE
0001FF
0001FF
0001FF
0001FF
0FFFFF
3FFFFF
7FFFFF
7FC1FF
7F81FF
FF01FF
FF01FF
FF01FF
FF81FF
FFFFFF
7FFFFF
7FFFFF
3FFEFF
1FF8FF
078000
000000
000000
7FFFFF
7FFFFF
7FFFFF
7FFFFF
ENDCHAR
STARTCHAR 00AB
ENCODING 171
SWIDTH 627 0
DWIDTH 41 0
BBX 35 29 3 4
BITMAP
0004000200
0006000600
000F000F00
001F801FC0
003FC03FE0
007FE07FE0
00FFC0FFC0
01FF81FF80
03FF03FF00
07FC07FE00
0FF80FFC00
1FF01FF800
3FE03FF000
7FC07FE000
FF80FFC000
FFC07FE000
7FE03FF000
3FF01FF800
0FF80FFC00
07FC07FE00
03FE03FF00
01FF01FF80
00FF80FFC0
007FC07FE0
003FE03FE0
001FC01FC0
000F800F80
0007000700
0002000200
ENDCHAR
STARTCHAR 00AC
ENCODING 172
SWIDTH 612 0
DWIDTH 40 0
BBX 30 24 5 11
BITMAP
FFFFFFFC
FFFFFFFC
FFFFFFFC
FFFFFFFC
FFFFFFFC
FFFFFFFC
FFFFFFFC
FFFFFFFC
000003FC
000003FC
000003FC
000003FC
000003FC
000003FC
000003FC
000003FC
000003FC
000003FC
000003FC
000003FC
000003FC
000003FC
000003FC
000003FC
ENDCHAR
STARTCHAR 00AD
ENCODING 173
SWIDTH 352 0
DWIDTH 23 0
BBX 20 8 1 15
BITMAP
FFFFF0
FFFFF0
FFFFF0
FFFFF0
FFFFF0
FFFFF0
FFFFF0
FFFFF0
ENDCHAR
STARTCHAR 00AE
ENCODING 174
SWIDTH 811 0
DWIDTH 53 0
BBX 47 48 3 0
BITMAP
0003FFFFE000
003FFFFFFC00
00FFFFFFFF00
03FFFFFFFF80
07FFFFFFFFC0
0FFF0000FFE0
0FF000000FF0
1FE0000007F0
1F80000003F8
3F80000001F8
3F07FFF001FC
7F07FFFE00FC
7E07FFFF00FC
7E07FFFF80FC
7E07FFFF807E
FC07E03FC07E
FC07E00FC07E
FC07E00FC07E
FC07E00FC07E
FC07E00FC07E
FC07E00FC07E
FC07E00FC07E
FC07E01FC03E
FC07FFFF803E
F807FFFF803E
F807FFFF003E
FC07FFFC007E
FC07E0F8007E
FC07E0FC007E
FC07E07C007E
FC07E07E007E
FC07E03E007E
7C07E03F007E
7E07E01F007C
7E07E01F80FC
7E07E00FC0FC
3F07E00FC0FC
3F07E007E1F8
1F80000001F8
1FC0000003F0
0FE0000007F0
0FF000000FE0
07FE00007FE0
03FFFFFFFFC0
01FFFFFFFF80
00FFFFFFFE00
003FFFFFFC00
0007FFFFE000
ENDCHAR
STARTCHAR 00AF
ENCODING 175
SWIDTH 352 0
DWIDTH 23 0
BBX 18 6 3 42
BITMAP
FFFFC0
FFFFC0
FFFFC0
FFFFC0
FFFFC0
FFFFC0
ENDCHAR
STARTCHAR 00B0
ENCODING 176
SWIDTH 321 0
DWIDTH 21 0
BBX 19 19 1 31
BITMAP
07FC00
0FFE00
1FFF00
3FFF80
7E1FC0
7C07C0
F803C0
F803E0
F003E0
F003E0
F803E0
F803E0
7C07C0
7E0FC0
7FFF80
3FFF80
1FFF00
07FC00
00C000
ENDCHAR
STARTCHAR 00B1
ENCODING 177
SWIDTH 612 0
DWIDTH 40 0
BBX 30 42 5 6
BITMAP
001FE000
001FE000
001FE000
001FE000
001FE000
001FE000
001FE000
001FE000
001FE000
001FE000
001FE000
FFFFFFFC
FFFFFFFC
FFFFFFFC
FFFFFFFC
FFFFFFFC
FFFFFFFC
FFFFFFFC
FFFFFFFC
001FE000
001FE000
001FE000
001FE000
001FE000
001FE000
001FE000
001FE000
001FE000
001FE000
00000000
00000000
00000000
00000000
00000000
FFFFFFFC
FFFFFFFC
FFFFFFFC
FFFFFFFC
FFFFFFFC
FFFFFFFC
FFFFFFFC
FFFFFFFC
ENDCHAR
STARTCHAR 00B2
ENCODING 178
SWIDTH 459 0
DWIDTH 30 0
BBX 24 36 3 18
BITMAP
01FF00
7FFFE0
7FFFF0
7FFFF8
7FFFFC
7FFFFC
7FFFFE
7FFFFE
0007FE
0003FE
0003FE
0003FE
0003FE
0003FE
0007FC
0007FC
000FFC
001FF8
003FF0
007FE0
00FFE0
01FFC0
03FF80
03FF00
07FE00
0FFC00
1FF800
3FF000
7FFFFF
FFFFFF
FFFFFF
FFFFFF
FFFFFF
FFFFFF
FFFFFF
FFFFFF
ENDCHAR
STARTCHAR 00B3
ENCODING 179
SWIDTH 459 0
DWIDTH 30 0
BBX 23 36 3 18
BITMAP
03FF00
FFFFE0
FFFFF0
FFFFF8
FFFFFC
FFFFFC
FFFFFE
FFFFFE
0007FE
0003FE
0001FE
0001FE
0001FE
0003FE
00FFFE
1FFFFC
1FFFF8
1FFFF0
1FFFF0
1FFFF8
1FFFFC
003FFE
0003FE
0001FE
0001FE
0001FE
0001FE
0003FE
FFFFFE
FFFFFE
FFFFFE
FFFFFC
FFFFFC
FFFFF8
FFFFE0
0FFF80
ENDCHAR
STARTCHAR 00B4
ENCODING 180
SWIDTH 229 0
DWIDTH 15 0
BBX 13 9 1 41
BITMAP
07F8
0FF0
0FE0
1FC0
1F80
3F00
7F00
7E00
FC00
ENDCHAR
STARTCHAR 00B5
ENCODING 181
SWIDTH 596 0
DWIDTH 39 0
BBX 31 53 4 -18
BITMAP
FF8003FE
FF8003FE
FF8003FE
FF8003FE
FF8003FE
FF8003FE
FF8003FE
FF8003FE
FF8003FE
FF8003FE
FF8003FE
FF8003FE
FF8003FE
FF8003FE
FF8003FE
FF8003FE
FF8003FE
FF8003FE
FF8003FE
FF8003FE
FF8003FE
FF8003FE
FF8003FE
FF8003FE
FFC007FE
FFC00FFE
FFF07FFE
FFFFFFFE
FFFFFFFE
FFFFFFFE
FFFFFFFE
FFFFFFFE
FFFFFBFE
FFFFF1FE
FFFFC1FE
FF800000
FF800000
FF800000
FF800000
FF800000
FF800000
FF800000
FF800000
FF800000
FF800000
FF800000
FF800000
FF800000
FF800000
FF800000
FF800000
FF800000
FF800000
ENDCHAR
STARTCHAR 00B6
ENCODING 182
SWIDTH 566 0
DWIDTH 37 0
BBX 36 66 2 -18
BITMAP
07FFFFFFF0
1FFFFFFFF0
3FFFFFFFF0
7FFFFFFFF0
7FFFFFFFF0
FFFFFFFFF0
FF03F87F00
FE03F87F00
FC03F87F00
FC03F87F00
FC03F87F00
FC03F87F00
FC03F87F00
FC03F87F00
FC03F87F00
FC03F87F00
FC03F87F00
FC03F87F00
FC03F87F00
FC03F87F00
FE03F87F00
FF83F87F00
7FFFF87F00
7FFFF87F00
3FFFF87F00
3FFFF87F00
0FFFF87F00
03FBF87F00
0003F87F00
0003F87F00
0003F87F00
0003F87F00
0003F87F00
0003F87F00
0003F87F00
0003F87F00
0003F87F00
0003F87F00
0003F87F00
0003F87F00
0003F87F00
0003F87F00
0003F87F00
0003F87F00
0003F87F00
0003F87F00
0003F87F00
0003F87F00
0003F80000
0003F80000
0003F80000
0003F80000
0003F80000
0003F80000
0003F80000
0003F80000
0003F80000
0003F80000
0003F80000
0003F80000
0003F80000
0003F80000
0003F80000
0003F80000
0003F80000
0003F80000
ENDCHAR
STARTCHAR 00B7
ENCODING 183
SWIDTH 260 0
DWIDTH 17 0
BBX 9 9 4 19
BITMAP
7E00
FF80
FF80
FF80
FF80
FF80
FF80
FF80
7F00
ENDCHAR
STARTCHAR 00B8
ENCODING 184
SWIDTH 244 0
DWIDTH 16 0
BBX 10 14 3 -13
BITMAP
1F00
1E00
3C00
7C00
7C00
BF00
1F80
1FC0
1FC0
3FC0
FF80
FF80
FF00
FC00
ENDCHAR
STARTCHAR 00B9
ENCODING 185
SWIDTH 459 0
DWIDTH 30 0
BBX 23 36 4 18
BITMAP
01FF00
0FFF00
7FFF00
FFFF00
FFFF00
FFFF00
FFFF00
FFFF00
E1FF00
01FF00
01FF00
01FF00
01FF00
01FF00
01FF00
01FF00
01FF00
01FF00
01FF00
01FF00
01FF00
01FF00
01FF00
01FF00
01FF00
01FF00
01FF00
01FF00
FFFFFE
FFFFFE
FFFFFE
FFFFFE
FFFFFE
FFFFFE
FFFFFE
FFFFFE
ENDCHAR
STARTCHAR 00BA
ENCODING 186
SWIDTH 428 0
DWIDTH 28 0
BBX 24 33 2 17
BITMAP
001800
07FFE0
1FFFF8
3FFFFC
7FFFFC
7FFFFE
7FFFFE
FF81FF
FF81FF
FF01FF
FF00FF
FF00FF
FF00FF
FF00FF
FF00FF
FF00FF
FF00FF
FF01FF
FF81FF
FF81FF
7FEFFE
7FFFFE
7FFFFE
3FFFFC
1FFFF8
07FFE0
003C00
000000
000000
FFFFFF
FFFFFF
FFFFFF
FFFFFF
ENDCHAR
STARTCHAR 00BB
ENCODING 187
SWIDTH 627 0
DWIDTH 41 0
BBX 36 29 2 4
BITMAP
0400040000
0E000E0000
1F001F0000
3F803F8000
7FC07FC000
FFE07FE000
3FF03FF000
1FF81FF800
0FFC0FFC00
07FE07FE00
03FF03FF00
01FF81FF80
00FFC0FFC0
007FE07FE0
003FF03FF0
007FE03FE0
00FFC07FC0
01FF80FF80
03FF03FF00
07FE07FE00
0FFC0FFC00
1FF81FF800
3FF03FF000
7FE07FE000
FFC07FC000
3F803F8000
1F001F0000
0E000E0000
0400040000
ENDCHAR
STARTCHAR 00BC
ENCODING 188
SWIDTH 1270 0
DWIDTH 83 0
BBX 77 55 4 -1
BITMAP
01FF0000000000000000
0FFF0000000000000000
7FFF0000000000000000
FFFF0000000000000000
FFFF00000003F8000000
FFFF00000007F0000000
FFFF00000007F0000000
FFFF00000007E0000000
F1FF0000000FE0000000
01FF0000000FC0000000
01FF0000001FC0000000
01FF0000001F80000000
01FF0000003F80000000
01FF0000003F00000000
01FF0000007F00000000
01FF0000007E00000000
01FF000000FE00000000
01FF000000FC00000000
01FF000001FC00000000
01FF000001F8001FF000
01FF000003F8001FE000
01FF000003F0003FE000
01FF000007F0003FE000
01FF000007F0003FC000
01FF00000FE0007FC000
01FF00000FE0007F8000
01FF00001FC000FF8000
01FF00001FC000FF0000
FFFFFE003F8001FF0000
FFFFFE003F8001FF0000
FFFFFE007F0001FE1F80
FFFFFE007F0003FE1F80
FFFFFE00FE0003FC1F80
FFFFFE00FE0007FC3F80
FFFFFE00FC0007F83F80
FFFFFE01FC000FF83F80
00000001F8000FF87F80
00000003F8001FF07F80
00000003F0001FF07F80
00000007F0001FE07F80
00000007E0003FE07F80
0000000FE0003FFFFFF8
0000000FC0007FFFFFF8
0000001FC0007FFFFFF8
0000001F80003FFFFFF8
0000003F80003FFFFFF8
0000003F00003FFFFFF8
0000007F00003FFFFFC0
0000007F000000007F80
000000FE000000007F80
000000FE000000007F80
000001FC000000007F80
000001FC000000007F80
000003F8000000007F80
00000000000000007F80
ENDCHAR
STARTCHAR 00BD
ENCODING 189
SWIDTH 1270 0
DWIDTH 83 0
BBX 75 55 4 -1
BITMAP
01FF0000000000000000
0FFF0000000000000000
7FFF0000000000000000
FFFF0000000000000000
FFFF00000003F8000000
FFFF00000007F0000000
FFFF00000007F0000000
FFFF00000007E0000000
F1FF0000000FE0000000
01FF0000000FC0000000
01FF0000001FC0000000
01FF0000001F80000000
01FF0000003F80000000
01FF0000003F00000000
01FF0000007F00000000
01FF0000007E00000000
01FF000000FE00000000
01FF000000FC00000000
01FF000001FC00000000
01FF000001F8003FE000
01FF000003F81FFFFC00
01FF000003F01FFFFE00
01FF000007F01FFFFF00
01FF000007F01FFFFF80
01FF00000FE01FFFFF80
01FF00000FE01FFFFFC0
01FF00001FC01FFFFFC0
01FF00001FC00000FFC0
FFFFFE003F8000007FC0
FFFFFE003F8000007FC0
FFFFFE007F0000007FC0
FFFFFE007F0000007FC0
FFFFFE00FE0000007FC0
FFFFFE00FE000000FF80
FFFFFE00FC000000FF80
FFFFFE01FC000001FF00
00000001F8000003FF00
00000003F8000007FE00
00000003F000000FFC00
00000007F000001FF800
00000007E000003FF800
0000000FE000007FF000
0000000FC00000FFE000
0000001FC00000FFC000
0000001F800001FF8000
0000003F800003FF0000
0000003F000007FE0000
0000007F00000FFFFFE0
0000007F00001FFFFFE0
000000FE00001FFFFFE0
000000FE00001FFFFFE0
000001FC00001FFFFFE0
000001FC00001FFFFFE0
000003F800001FFFFFE0
0000000000001FFFFFE0
ENDCHAR
STARTCHAR 00BE
ENCODING 190
SWIDTH 1270 0
DWIDTH 83 0
BBX 78 55 3 -1
BITMAP
03FF8000000000000000
7FFFF000000000000000
7FFFF800000000000000
7FFFFC00000000000000
7FFFFE000001FC000000
7FFFFE000003F8000000
7FFFFE000003F8000000
7FFFFF000003F0000000
0003FF000007F0000000
0001FF000007E0000000
0001FF00000FE0000000
0001FF00000FC0000000
0001FF00001FC0000000
0001FE00001F80000000
007FFE00003F80000000
1FFFFE00003F00000000
1FFFFC00007F00000000
1FFFF800007E00000000
1FFFF80000FE00000000
1FFFFC0000FC000FF800
1FFFFE0001FC000FF000
001FFE0001F8001FF000
0001FF0003F8001FF000
0000FF0003F8001FE000
0000FF0007F0003FE000
0000FF0007F0003FC000
0000FF000FE0007FC000
0001FF000FE0007F8000
FFFFFF001FC000FF8000
FFFFFF001FC000FF8000
FFFFFE003F8000FF0FC0
FFFFFE003F8001FF0FC0
FFFFFC007F0001FE0FC0
FFFFF8007F0003FE1FC0
FFFFF0007E0003FC1FC0
0FFF8000FE0007FC1FC0
00000000FC0007FC3FC0
00000001FC000FF83FC0
00000001F8000FF83FC0
00000003F8000FF03FC0
00000003F0001FF03FC0
00000007F0001FFFFFFC
00000007E0003FFFFFFC
0000000FE0003FFFFFFC
0000000FC0001FFFFFFC
0000001FC0001FFFFFFC
0000001F80001FFFFFFC
0000003F80001FFFFFE0
0000003F800000003FC0
0000007F000000003FC0
0000007F000000003FC0
000000FE000000003FC0
000000FE000000003FC0
000001FC000000003FC0
00000000000000003FC0
ENDCHAR
STARTCHAR 00BF
ENCODING 191
SWIDTH 535 0
DWIDTH 35 0
BBX 28 48 4 -13
BITMAP
0007F800
0007F800
0007F800
0007F800
0007F800
0007F800
0007F800
0007F800
0007F800
00000000
00000000
00000000
00000000
0003F800
0003F800
0003F800
0003F800
0003F800
0003F800
00FFF800
07FFF800
0FFFF800
1FFFF800
3FFFF800
7FFFF800
7FFFF800
FFF80000
FFE00000
FFC00000
FFC00000
FFC00000
FF800000
FF800000
FF800000
FFC00000
FFC00000
FFC00000
FFE00010
FFF000F0
FFFF1FF0
7FFFFFF0
7FFFFFF0
3FFFFFF0
3FFFFFF0
1FFFFFF0
0FFFFFC0
03FFFF00
00FFF800
ENDCHAR
STARTCHAR 00C0
ENCODING 192
SWIDTH 688 0
DWIDTH 45 0
BBX 43 60 1 0
BITMAP
000FF0000000
0003F8000000
0003FC000000
0001FC000000
0000FE000000
00007E000000
00003F000000
00001F800000
00001F800000
000000000000
000000000000
000000000000
0001FFF00000
0001FFF00000
0003FFF00000
0003FFF80000
0003FFF80000
0007FFF80000
0007FFFC0000
0007FFFC0000
000FFFFC0000
000FFBFE0000
000FFBFE0000
000FF3FE0000
001FF1FF0000
001FF1FF0000
001FE1FF0000
003FE1FF0000
003FE0FF8000
003FE0FF8000
007FC0FF8000
007FC07FC000
007FC07FC000
00FF807FC000
00FF807FE000
00FF803FE000
01FF803FE000
01FF003FF000
01FF003FF000
01FF001FF000
03FF001FF800
03FFFFFFF800
03FFFFFFF800
07FFFFFFF800
07FFFFFFFC00
07FFFFFFFC00
0FFFFFFFFC00
0FFFFFFFFE00
0FFFFFFFFE00
1FFFFFFFFE00
1FF80003FF00
1FF80003FF00
3FF00003FF00
3FF00001FF80
3FF00001FF80
3FE00001FF80
7FE00000FFC0
7FE00000FFC0
7FE00000FFC0
FFC00000FFE0
ENDCHAR
STARTCHAR 00C1
ENCODING 193
SWIDTH 688 0
DWIDTH 45 0
BBX 43 60 1 0
BITMAP
000000FF0000
000001FC0000
000001FC0000
000003F80000
000007F00000
000007E00000
00000FC00000
00000FC00000
00001F800000
000000000000
000000000000
000000000000
0001FFF00000
0001FFF00000
0003FFF00000
0003FFF80000
0003FFF80000
0007FFF80000
0007FFFC0000
0007FFFC0000
000FFFFC0000
000FFBFE0000
000FFBFE0000
000FF3FE0000
001FF1FF0000
001FF1FF0000
001FE1FF0000
003FE1FF0000
003FE0FF8000
003FE0FF8000
007FC0FF8000
007FC07FC000
007FC07FC000
00FF807FC000
00FF807FE000
00FF803FE000
01FF803FE000
01FF003FF000
01FF003FF000
01FF001FF000
03FF001FF800
03FFFFFFF800
03FFFFFFF800
07FFFFFFF800
07FFFFFFFC00
07FFFFFFFC00
0FFFFFFFFC00
0FFFFFFFFE00
0FFFFFFFFE00
1FFFFFFFFE00
1FF80003FF00
1FF80003FF00
3FF00003FF00
3FF00001FF80
3FF00001FF80
3FE00001FF80
7FE00000FFC0
7FE00000FFC0
7FE00000FFC0
FFC00000FFE0
ENDCHAR
STARTCHAR 00C2
ENCODING 194
SWIDTH 688 0
DWIDTH 45 0
BBX 43 61 1 0
BITMAP
00003F800000
00007F800000
00007FC00000
0000FFE00000
0001FFF00000
0003FBF00000
0003F1F80000
0007E0FC0000
000FC0FC0000
001F807E0000
000000000000
000000000000
000000000000
0001FFF00000
0001FFF00000
0003FFF00000
0003FFF80000
0003FFF80000
0007FFF80000
0007FFFC0000
0007FFFC0000
000FFFFC0000
000FFBFE0000
000FFBFE0000
000FF3FE0000
001FF1FF0000
001FF1FF0000
001FE1FF0000
003FE1FF0000
003FE0FF8000
003FE0FF8000
007FC0FF8000
007FC07FC000
007FC07FC000
00FF807FC000
00FF807FE000
00FF803FE000
01FF803FE000
01FF003FF000
01FF003FF000
01FF001FF000
03FF001FF800
03FFFFFFF800
03FFFFFFF800
07FFFFFFF800
07FFFFFFFC00
07FFFFFFFC00
0FFFFFFFFC00
0FFFFFFFFE00
0FFFFFFFFE00
1FFFFFFFFE00
1FF80003FF00
1FF80003FF00
3FF00003FF00
3FF00001FF80
3FF00001FF80
3FE00001FF80
7FE00000FFC0
7FE00000FFC0
7FE00000FFC0
FFC00000FFE0
ENDCHAR
STARTCHAR 00C3
ENCODING 195
SWIDTH 688 0
DWIDTH 45 0
BBX 43 60 1 0
BITMAP
0001000F8000
000FF00F8000
001FFC1F8000
003FFFFF8000
003FFFFF0000
003FFFFF0000
007E1FFE0000
007C07FC0000
007C00F00000
000000000000
000000000000
000000000000
0001FFF00000
0001FFF00000
0003FFF00000
0003FFF80000
0003FFF80000
0007FFF80000
0007FFFC0000
0007FFFC0000
000FFFFC0000
000FFBFE0000
000FFBFE0000
000FF3FE0000
001FF1FF0000
001FF1FF0000
001FE1FF0000
003FE1FF0000
003FE0FF8000
003FE0FF8000
007FC0FF8000
007FC07FC000
007FC07FC000
00FF807FC000
00FF807FE000
00FF803FE000
01FF803FE000
01FF003FF000
01FF003FF000
01FF001FF000
03FF001FF800
03FFFFFFF800
03FFFFFFF800
07FFFFFFF800
07FFFFFFFC00
07FFFFFFFC00
0FFFFFFFFC00
0FFFFFFFFE00
0FFFFFFFFE00
1FFFFFFFFE00
1FF80003FF00
1FF80003FF00
3FF00003FF00
3FF00001FF80
3FF00001FF80
3FE00001FF80
7FE00000FFC0
7FE00000FFC0
7FE00000FFC0
FFC00000FFE0
ENDCHAR
STARTCHAR 00C4
ENCODING 196
SWIDTH 688 0
DWIDTH 45 0
BBX 43 61 1 0
BITMAP
003F80FE0000
003F80FE0000
003F80FE0000
003F80FE0000
003F80FE0000
003F80FE0000
003F80FE0000
003F80FE0000
001F80FE0000
000000000000
000000000000
000000000000
000000000000
0001FFF00000
0001FFF00000
0003FFF00000
0003FFF80000
0003FFF80000
0007FFF80000
0007FFFC0000
0007FFFC0000
000FFFFC0000
000FFBFE0000
000FFBFE0000
000FF3FE0000
001FF1FF0000
001FF1FF0000
001FE1FF0000
003FE1FF0000
003FE0FF8000
003FE0FF8000
007FC0FF8000
007FC07FC000
007FC07FC000
00FF807FC000
00FF807FE000
00FF803FE000
01FF803FE000
01FF003FF000
01FF003FF000
01FF001FF000
03FF001FF800
03FFFFFFF800
03FFFFFFF800
07FFFFFFF800
07FFFFFFFC00
07FFFFFFFC00
0FFFFFFFFC00
0FFFFFFFFE00
0FFFFFFFFE00
1FFFFFFFFE00
1FF80003FF00
1FF80003FF00
3FF00003FF00
3FF00001FF80
3FF00001FF80
3FE00001FF80
7FE00000FFC0
7FE00000FFC0
7FE00000FFC0
FFC00000FFE0
ENDCHAR
STARTCHAR 00C5
ENCODING 197
SWIDTH 688 0
DWIDTH 45 0
BBX 43 65 1 0
BITMAP
00007F800000
0001FFE00000
0003FFF00000
0003FFF80000
0003C0F80000
0007C0780000
0007C0780000
0007C0780000
0007C0780000
0007C0780000
0003E0F80000
0003FFF80000
0001FFF00000
0000FFE00000
00001F000000
000000000000
000000000000
0001FFF00000
0001FFF00000
0003FFF00000
0003FFF80000
0003FFF80000
0007FFF80000
0007FFFC0000
0007FFFC0000
000FFFFC0000
000FFBFE0000
000FFBFE0000
000FF3FE0000
001FF1FF0000
001FF1FF0000
001FE1FF0000
003FE1FF0000
003FE0FF8000
003FE0FF8000
007FC0FF8000
007FC07FC000
007FC07FC000
00FF807FC000
00FF807FE000
00FF803FE000
01FF803FE000
01FF003FF000
01FF003FF000
01FF001FF000
03FF001FF800
03FFFFFFF800
03FFFFFFF800
07FFFFFFF800
07FFFFFFFC00
07FFFFFFFC00
0FFFFFFFFC00
0FFFFFFFFE00
0FFFFFFFFE00
1FFFFFFFFE00
1FF80003FF00
1FF80003FF00
3FF00003FF00
3FF00001FF80
3FF00001FF80
3FE00001FF80
7FE00000FFC0
7FE00000FFC0
7FE00000FFC0
FFC00000FFE0
ENDCHAR
STARTCHAR 00C6
ENCODING 198
SWIDTH 979 0
DWIDTH 64 0
BBX 60 48 1 0
BITMAP
000000007FFFFFF0
00000003FFFFFFF0
0000000FFFFFFFF0
0000003FFFFFFFF0
0000007FFFFFFFF0
000000FFFFFFFFF0
000001FFFFFFFFF0
000001FFFFFFFFF0
000003FFFFFFFFF0
000007FFFE000000
000007FFFE000000
00000FFFFC000000
00001FFBFC000000
00001FFBFC000000
00003FF3FC000000
00003FE3FC000000
00007FE3FC000000
00007FC3FC000000
0000FFC3FC000000
0000FF83FC000000
0001FF83FFFFFF80
0001FF03FFFFFF80
0003FF03FFFFFF80
0007FE03FFFFFF80
0007FE03FFFFFF80
000FFC03FFFFFF80
000FFC03FFFFFF80
001FF803FFFFFF80
001FF803FC000000
003FF003FC000000
003FFFFFFC000000
007FFFFFFC000000
007FFFFFFC000000
00FFFFFFFC000000
01FFFFFFFC000000
01FFFFFFFC000000
03FFFFFFFE000000
03FFFFFFFE000000
07FE0003FF000000
07FE0003FFFFFFF0
0FFC0003FFFFFFF0
0FF80003FFFFFFF0
1FF80003FFFFFFF0
1FF00003FFFFFFF0
3FF00001FFFFFFF0
7FE00000FFFFFFF0
7FC000007FFFFFF0
FFC000001FFFFFC0
ENDCHAR
STARTCHAR 00C7
ENCODING 199
SWIDTH 581 0
DWIDTH 38 0
BBX 33 62 3 -13
BITMAP
0007FE0000
003FFFF800
01FFFFFF80
03FFFFFF80
07FFFFFF80
0FFFFFFF80
1FFFFFFF80
1FFFFFFF80
3FFFFFFF80
3FFE000380
3FF8000000
7FF0000000
7FE0000000
7FE0000000
7FE0000000
7FC0000000
FFC0000000
FFC0000000
FFC0000000
FFC0000000
FFC0000000
FFC0000000
FFC0000000
FFC0000000
FFC0000000
FFC0000000
FFC0000000
FFC0000000
FFC0000000
FFC0000000
FFC0000000
FFC0000000
FFC0000000
FFC0000000
7FC0000000
7FE0000000
7FE0000000
7FF0000000
7FF0000000
3FFC000000
3FFF800F80
3FFFFFFF80
1FFFFFFF80
1FFFFFFF80
0FFFFFFF80
07FFFFFF80
03FFFFFF80
00FFFFFF80
003FFFF800
00007C0000
0000780000
0000F00000
0001F80000
0000FE0000
00003F0000
00003F0000
00003F0000
00007F0000
0003FF0000
0003FE0000
0003FE0000
0003F80000
ENDCHAR
STARTCHAR 00C8
ENCODING 200
SWIDTH 596 0
DWIDTH 39 0
BBX 32 60 4 0
BITMAP
01FF0000
007F0000
003F8000
003F8000
001FC000
000FE000
0007E000
0003F000
0001F000
00000000
00000000
00000000
03FFFFFF
0FFFFFFF
1FFFFFFF
3FFFFFFF
3FFFFFFF
7FFFFFFF
7FFFFFFF
FFFFFFFF
FFFFFFFF
FFE00000
FFC00000
FFC00000
FFC00000
FFC00000
FFC00000
FFC00000
FFC00000
FFC00000
FFC00000
FFC00000
FFFFFFF8
FFFFFFF8
FFFFFFF8
FFFFFFF8
FFFFFFF8
FFFFFFF8
FFFFFFF8
FFFFFFF8
FFC00000
FFC00000
FFC00000
FFC00000
FFC00000
FFC00000
FFC00000
FFC00000
FFC00000
FFC00000
FFE00000
FFFFFFFF
FFFFFFFF
7FFFFFFF
7FFFFFFF
7FFFFFFF
3FFFFFFF
1FFFFFFF
0FFFFFFF
03FFFFFC
ENDCHAR
STARTCHAR 00C9
ENCODING 201
SWIDTH 596 0
DWIDTH 39 0
BBX 32 60 4 0
BITMAP
00001FE0
00003FC0
00003F80
00007F00
0000FE00
0000FC00
0001FC00
0001F800
0003F000
00000000
00000000
00000000
03FFFFFF
0FFFFFFF
1FFFFFFF
3FFFFFFF
3FFFFFFF
7FFFFFFF
7FFFFFFF
FFFFFFFF
FFFFFFFF
FFE00000
FFC00000
FFC00000
FFC00000
FFC00000
FFC00000
FFC00000
FFC00000
FFC00000
FFC00000
FFC00000
FFFFFFF8
FFFFFFF8
FFFFFFF8
FFFFFFF8
FFFFFFF8
FFFFFFF8
FFFFFFF8
FFFFFFF8
FFC00000
FFC00000
FFC00000
FFC00000
FFC00000
FFC00000
FFC00000
FFC00000
FFC00000
FFC00000
FFE00000
FFFFFFFF
FFFFFFFF
7FFFFFFF
7FFFFFFF
7FFFFFFF
3FFFFFFF
1FFFFFFF
0FFFFFFF
03FFFFFC
ENDCHAR
STARTCHAR 00CA
ENCODING 202
SWIDTH 596 0
DWIDTH 39 0
BBX 32 61 4 0
BITMAP
0007F000
0007F800
000FF800
001FFC00
003FFE00
007F7E00
007E3F00
00FC1F80
01F80FC0
03F00FC0
00000000
00000000
00000000
03FFFFFF
0FFFFFFF
1FFFFFFF
3FFFFFFF
3FFFFFFF
7FFFFFFF
7FFFFFFF
FFFFFFFF
FFFFFFFF
FFE00000
FFC00000
FFC00000
FFC00000
FFC00000
FFC00000
FFC00000
FFC00000
FFC00000
FFC00000
FFC00000
FFFFFFF8
FFFFFFF8
FFFFFFF8
FFFFFFF8
FFFFFFF8
FFFFFFF8
FFFFFFF8
FFFFFFF8
FFC00000
FFC00000
FFC00000
FFC00000
FFC00000
FFC00000
FFC00000
FFC00000
FFC00000
FFC00000
FFE00000
FFFFFFFF
FFFFFFFF
7FFFFFFF
7FFFFFFF
7FFFFFFF
3FFFFFFF
1FFFFFFF
0FFFFFFF
03FFFFFC
ENDCHAR
STARTCHAR 00CB
ENCODING 203
SWIDTH 596 0
DWIDTH 39 0
BBX 32 61 4 0
BITMAP
03F01FC0
07F81FE0
07F81FE0
07F81FE0
07F81FE0
07F81FE0
07F81FE0
07F81FE0
03F00FC0
00000000
00000000
00000000
00000000
03FFFFFF
0FFFFFFF
1FFFFFFF
3FFFFFFF
3FFFFFFF
7FFFFFFF
7FFFFFFF
FFFFFFFF
FFFFFFFF
FFE00000
FFC00000
FFC00000
FFC00000
FFC00000
FFC00000
FFC00000
FFC00000
FFC00000
FFC00000
FFC00000
FFFFFFF8
FFFFFFF8
FFFFFFF8
FFFFFFF8
FFFFFFF8
FFFFFFF8
FFFFFFF8
FFFFFFF8
FFC00000
FFC00000
FFC00000
FFC00000
FFC00000
FFC00000
FFC00000
FFC00000
FFC00000
FFC00000
FFE00000
FFFFFFFF
FFFFFFFF
7FFFFFFF
7FFFFFFF
7FFFFFFF
3FFFFFFF
1FFFFFFF
0FFFFFFF
03FFFFFC
ENDCHAR
STARTCHAR 00CC
ENCODING 204
SWIDTH 275 0
DWIDTH 18 0
BBX 14 60 0 0
BITMAP
FF00
7F80
3F80
1FC0
0FE0
07E0
07F0
03F0
01F8
0000
0000
0000
0FFC
0FFC
0FFC
0FFC
0FFC
0FFC
0FFC
0FFC
0FFC
0FFC
0FFC
0FFC
0FFC
0FFC
0FFC
0FFC
0FFC
0FFC
0FFC
0FFC
0FFC
0FFC
0FFC
0FFC
0FFC
0FFC
0FFC
0FFC
0FFC
0FFC
0FFC
0FFC
0FFC
0FFC
0FFC
0FFC
0FFC
0FFC
0FFC
0FFC
0FFC
0FFC
0FFC
0FFC
0FFC
0FFC
0FFC
0FFC
ENDCHAR
STARTCHAR 00CD
ENCODING 205
SWIDTH 275 0
DWIDTH 18 0
BBX 16 60 4 0
BITMAP
01FF
01FC
03F8
03F8
07F0
0FE0
0FC0
1F80
1F00
0000
0000
0000
FFC0
FFC0
FFC0
FFC0
FFC0
FFC0
FFC0
FFC0
FFC0
FFC0
FFC0
FFC0
FFC0
FFC0
FFC0
FFC0
FFC0
FFC0
FFC0
FFC0
FFC0
FFC0
FFC0
FFC0
FFC0
FFC0
FFC0
FFC0
FFC0
FFC0
FFC0
FFC0
FFC0
FFC0
FFC0
FFC0
FFC0
FFC0
FFC0
FFC0
FFC0
FFC0
FFC0
FFC0
FFC0
FFC0
FFC0
FFC0
ENDCHAR
STARTCHAR 00CE
ENCODING 206
SWIDTH 275 0
DWIDTH 18 0
BBX 20 61 -1 0
BITMAP
01FC00
03FC00
07FE00
07FF00
0FFF00
1F9F80
3F1FC0
3F0FC0
7E07E0
FC03F0
000000
000000
000000
07FE00
07FE00
07FE00
07FE00
07FE00
07FE00
07FE00
07FE00
07FE00
07FE00
07FE00
07FE00
07FE00
07FE00
07FE00
07FE00
07FE00
07FE00
07FE00
07FE00
07FE00
07FE00
07FE00
07FE00
07FE00
07FE00
07FE00
07FE00
07FE00
07FE00
07FE00
07FE00
07FE00
07FE00
07FE00
07FE00
07FE00
07FE00
07FE00
07FE00
07FE00
07FE00
07FE00
07FE00
07FE00
07FE00
07FE00
07FE00
ENDCHAR
STARTCHAR 00CF
ENCODING 207
SWIDTH 275 0
DWIDTH 18 0
BBX 21 61 -2 0
BITMAP
FE03F8
FE03F8
FE03F8
FE03F8
FE03F8
FE03F8
FE03F8
FE03F8
FE03F8
000000
000000
000000
000000
03FF00
03FF00
03FF00
03FF00
03FF00
03FF00
03FF00
03FF00
03FF00
03FF00
03FF00
03FF00
03FF00
03FF00
03FF00
03FF00
03FF00
03FF00
03FF00
03FF00
03FF00
03FF00
03FF00
03FF00
03FF00
03FF00
03FF00
03FF00
03FF00
03FF00
03FF00
03FF00
03FF00
03FF00
03FF00
03FF00
03FF00
03FF00
03FF00
03FF00
03FF00
03FF00
03FF00
03FF00
03FF00
03FF00
03FF00
03FF00
ENDCHAR
STARTCHAR 00D0
ENCODING 208
SWIDTH 673 0
DWIDTH 44 0
BBX 40 48 1 0
BITMAP
1FFFFFFC00
1FFFFFFF00
1FFFFFFFC0
1FFFFFFFE0
1FFFFFFFF0
1FFFFFFFF0
1FFFFFFFF8
1FFFFFFFFC
1FF800FFFC
1FF8001FFC
1FF8000FFE
1FF80007FE
1FF80007FE
1FF80003FF
1FF80003FF
1FF80003FF
1FF80003FF
1FF80003FF
1FF80001FF
1FF80001FF
FFFFF801FF
FFFFF801FF
FFFFF801FF
FFFFF801FF
FFFFF801FF
FFFFF801FF
FFFFF801FF
1FF80001FF
1FF80001FF
1FF80003FF
1FF80003FF
1FF80003FF
1FF80003FF
1FF80003FF
1FF80007FE
1FF80007FE
1FF8000FFE
1FF8001FFE
1FF8003FFC
1FFFFFFFFC
1FFFFFFFF8
1FFFFFFFF8
1FFFFFFFF0
1FFFFFFFE0
1FFFFFFFC0
1FFFFFFF80
1FFFFFFE00
1FFFFFF000
ENDCHAR
STARTCHAR 00D1
ENCODING 209
SWIDTH 704 0
DWIDTH 46 0
BBX 38 60 4 0
BITMAP
0008007C00
007F807C00
00FFE0FC00
01FFFFFC00
01FFFFF800
01FFFFF800
03F0FFF000
03E03FE000
03E0078000
0000000000
0000000000
0000000000
FF800007FC
FF800007FC
FFC00007FC
FFE00007FC
FFE00007FC
FFF00007FC
FFF80007FC
FFF80007FC
FFFC0007FC
FFFE0007FC
FFFE0007FC
FFFF0007FC
FFFF0007FC
FFFF8007FC
FFFFC007FC
FFFFC007FC
FFFFE007FC
FFDFF007FC
FFCFF007FC
FFCFF807FC
FFC7FC07FC
FFC3FC07FC
FFC3FE07FC
FFC1FE07FC
FFC0FF07FC
FFC0FF87FC
FFC07F87FC
FFC07FC7FC
FFC03FE7FC
FFC01FE7FC
FFC01FF7FC
FFC00FFFFC
FFC007FFFC
FFC007FFFC
FFC003FFFC
FFC003FFFC
FFC001FFFC
FFC000FFFC
FFC000FFFC
FFC0007FFC
FFC0003FFC
FFC0003FFC
FFC0001FFC
FFC0000FFC
FFC0000FFC
FFC00007FC
FFC00007FC
FFC00003FC
ENDCHAR
STARTCHAR 00D2
ENCODING 210
SWIDTH 704 0
DWIDTH 46 0
BBX 40 60 3 0
BITMAP
001FE00000
000FF00000
0007F00000
0003F80000
0001F80000
0001FC0000
0000FE0000
00007E0000
00003F0000
0000000000
0000000000
0001FF8000
003FFFFC00
00FFFFFF00
03FFFFFF80
07FFFFFFC0
0FFFFFFFE0
0FFFFFFFF0
1FFFFFFFF8
1FFFFFFFF8
3FFE007FFC
3FF8001FFC
7FF0000FFC
7FE0000FFE
7FE00007FE
7FE00007FE
7FC00007FE
FFC00003FE
FFC00003FE
FFC00003FE
FFC00003FF
FFC00003FF
FFC00003FF
FFC00003FF
FFC00003FF
FFC00003FF
FFC00003FF
FFC00003FF
FFC00003FF
FFC00003FF
FFC00003FF
FFC00003FF
FFC00003FE
FFC00003FE
FFC00007FE
7FC00007FE
7FE00007FE
7FE00007FE
7FF0000FFC
7FF0001FFC
3FFC003FFC
3FFF81FFFC
1FFFFFFFF8
1FFFFFFFF8
0FFFFFFFF0
07FFFFFFE0
03FFFFFFC0
01FFFFFF80
00FFFFFE00
001FFFF000
ENDCHAR
STARTCHAR 00D3
ENCODING 211
SWIDTH 704 0
DWIDTH 46 0
BBX 40 60 3 0
BITMAP
000003FE00
000003F800
000007F000
000007E000
00000FE000
00001FC000
00001F8000
00003F0000
00007E0000
0000000000
0000000000
0001FF8000
003FFFFC00
00FFFFFF00
03FFFFFF80
07FFFFFFC0
0FFFFFFFE0
0FFFFFFFF0
1FFFFFFFF8
1FFFFFFFF8
3FFE007FFC
3FF8001FFC
7FF0000FFC
7FE0000FFE
7FE00007FE
7FE00007FE
7FC00007FE
FFC00003FE
FFC00003FE
FFC00003FE
FFC00003FF
FFC00003FF
FFC00003FF
FFC00003FF
FFC00003FF
FFC00003FF
FFC00003FF
FFC00003FF
FFC00003FF
FFC00003FF
FFC00003FF
FFC00003FF
FFC00003FE
FFC00003FE
FFC00007FE
7FC00007FE
7FE00007FE
7FE00007FE
7FF0000FFC
7FF0001FFC
3FFC003FFC
3FFF81FFFC
1FFFFFFFF8
1FFFFFFFF8
0FFFFFFFF0
07FFFFFFE0
03FFFFFFC0
01FFFFFF80
00FFFFFE00
001FFFF000
ENDCHAR
STARTCHAR 00D4
ENCODING 212
SWIDTH 704 0
DWIDTH 46 0
BBX 40 61 3 0
BITMAP
00007E0000
0000FF0000
0001FF8000
0003FF8000
0003FFC000
0007EFE000
000FC7F000
001F83F000
001F01F800
003F00FC00
0000000000
0000000000
0001FF8000
003FFFFC00
00FFFFFF00
03FFFFFF80
07FFFFFFC0
0FFFFFFFE0
0FFFFFFFF0
1FFFFFFFF8
1FFFFFFFF8
3FFE007FFC
3FF8001FFC
7FF0000FFC
7FE0000FFE
7FE00007FE
7FE00007FE
7FC00007FE
FFC00003FE
FFC00003FE
FFC00003FE
FFC00003FF
FFC00003FF
FFC00003FF
FFC00003FF
FFC00003FF
FFC00003FF
FFC00003FF
FFC00003FF
FFC00003FF
FFC00003FF
FFC00003FF
FFC00003FF
FFC00003FE
FFC00003FE
FFC00007FE
7FC00007FE
7FE00007FE
7FE00007FE
7FF0000FFC
7FF0001FFC
3FFC003FFC
3FFF81FFFC
1FFFFFFFF8
1FFFFFFFF8
0FFFFFFFF0
07FFFFFFE0
03FFFFFFC0
01FFFFFF80
00FFFFFE00
001FFFF000
ENDCHAR
STARTCHAR 00D5
ENCODING 213
SWIDTH 704 0
DWIDTH 46 0
BBX 40 60 3 0
BITMAP
0006001F00
001FE01F00
003FF83E00
007FFFFE00
00FFFFFE00
00FFFFFC00
00F83FFC00
00F80FF800
00F001E000
0000000000
0000000000
0001FF8000
003FFFFC00
00FFFFFF00
03FFFFFF80
07FFFFFFC0
0FFFFFFFE0
0FFFFFFFF0
1FFFFFFFF8
1FFFFFFFF8
3FFE007FFC
3FF8001FFC
7FF0000FFC
7FE0000FFE
7FE00007FE
7FE00007FE
7FC00007FE
FFC00003FE
FFC00003FE
FFC00003FE
FFC00003FF
FFC00003FF
FFC00003FF
FFC00003FF
FFC00003FF
FFC00003FF
FFC00003FF
FFC00003FF
FFC00003FF
FFC00003FF
FFC00003FF
FFC00003FF
FFC00003FE
FFC00003FE
FFC00007FE
7FC00007FE
7FE00007FE
7FE00007FE
7FF0000FFC
7FF0001FFC
3FFC003FFC
3FFF81FFFC
1FFFFFFFF8
1FFFFFFFF8
0FFFFFFFF0
07FFFFFFE0
03FFFFFFC0
01FFFFFF80
00FFFFFE00
001FFFF000
ENDCHAR
STARTCHAR 00D6
ENCODING 214
SWIDTH 704 0
DWIDTH 46 0
BBX 40 61 3 0
BITMAP
007F01FC00
007F01FC00
007F01FC00
007F01FC00
007F01FC00
007F01FC00
007F01FC00
007F01FC00
007F01FC00
0000000000
0000000000
0000000000
0001FF8000
003FFFFC00
00FFFFFF00
03FFFFFF80
07FFFFFFC0
0FFFFFFFE0
0FFFFFFFF0
1FFFFFFFF8
1FFFFFFFF8
3FFE007FFC
3FF8001FFC
7FF0000FFC
7FE0000FFE
7FE00007FE
7FE00007FE
7FC00007FE
FFC00003FE
FFC00003FE
FFC00003FE
FFC00003FF
FFC00003FF
FFC00003FF
FFC00003FF
FFC00003FF
FFC00003FF
FFC00003FF
FFC00003FF
FFC00003FF
FFC00003FF
FFC00003FF
FFC00003FF
FFC00003FE
FFC00003FE
FFC00007FE
7FC00007FE
7FE00007FE
7FE00007FE
7FF0000FFC
7FF0001FFC
3FFC003FFC
3FFF81FFFC
1FFFFFFFF8
1FFFFFFFF8
0FFFFFFFF0
07FFFFFFE0
03FFFFFFC0
01FFFFFF80
00FFFFFE00
001FFFF000
ENDCHAR
STARTCHAR 00D7
ENCODING 215
SWIDTH 612 0
DWIDTH 40 0
BBX 26 26 7 10
BITMAP
0C000800
1E001C00
3F003E00
7F807F00
FFC0FF80
FFE1FFC0
7FF3FF80
3FFFFF00
1FF3FE00
0FE1FC00
07C0F800
03807000
01002000
01002000
03807000
07C0F800
0FE1FC00
1FF3FE00
3FFFFF00
7FF3FF80
FFE1FFC0
7FC0FF80
3F807F00
1F003E00
0E001C00
04000800
ENDCHAR
STARTCHAR 00D8
ENCODING 216
SWIDTH 704 0
DWIDTH 46 0
BBX 40 49 3 0
BITMAP
0001FF8000
003FFFFCFE
00FFFFFFFC
03FFFFFFF8
07FFFFFFF8
0FFFFFFFF0
0FFFFFFFF0
1FFFFFFFF8
1FFFFFFFF8
3FFE007FFC
3FF8003FFC
7FF0007FFC
7FE0007FFE
7FE000FFFE
7FE001FFFE
7FC001FFFE
FFC003FBFE
FFC007F3FE
FFC007E3FE
FFC00FE3FF
FFC00FC3FF
FFC01F83FF
FFC03F83FF
FFC03F03FF
FFC07E03FF
FFC0FE03FF
FFC0FC03FF
FFC1F803FF
FFC3F803FF
FFC3F003FF
FFC7E003FF
FFCFE003FE
FFCFC003FE
FFDF8007FE
7FFF8007FE
7FFF0007FE
7FFE0007FE
7FFE000FFC
7FFC001FFC
3FFC003FFC
3FFF81FFFC
1FFFFFFFF8
1FFFFFFFF8
0FFFFFFFF0
0FFFFFFFE0
1FFFFFFFC0
3FFFFFFF80
3FFFFFFE00
7E1FFFF000
ENDCHAR
STARTCHAR 00D9
ENCODING 217
SWIDTH 688 0
DWIDTH 45 0
BBX 37 60 4 0
BITMAP
007F800000
003FC00000
001FC00000
000FE00000
0007E00000
0007F00000
0003F00000
0001F80000
0000FC0000
0000000000
0000000000
0000000000
FF80000FF8
FF80000FF8
FF80000FF8
FF80000FF8
FF80000FF8
FF80000FF8
FF80000FF8
FF80000FF8
FF80000FF8
FF80000FF8
FF80000FF8
FF80000FF8
FF80000FF8
FF80000FF8
FF80000FF8
FF80000FF8
FF80000FF8
FF80000FF8
FF80000FF8
FF80000FF8
FF80000FF8
FF80000FF8
FF80000FF8
FF80000FF8
FF80000FF8
FF80000FF8
FF80000FF8
FF80000FF8
FF80000FF8
FF80000FF8
FF80000FF8
FF80000FF8
FF80000FF8
FF80001FF8
FF80001FF8
FFC0001FF8
FFC0001FF8
FFE0003FF8
FFF000FFF8
7FFF07FFF0
7FFFFFFFF0
7FFFFFFFE0
3FFFFFFFE0
1FFFFFFFC0
0FFFFFFF80
07FFFFFE00
01FFFFFC00
003FFFE000
ENDCHAR
STARTCHAR 00DA
ENCODING 218
SWIDTH 688 0
DWIDTH 45 0
BBX 37 60 4 0
BITMAP
00000FF800
00000FE000
00001FC000
00003F8000
00003F8000
00007F0000
00007E0000
0000FC0000
0001F80000
0000000000
0000000000
0000000000
FF80000FF8
FF80000FF8
FF80000FF8
FF80000FF8
FF80000FF8
FF80000FF8
FF80000FF8
FF80000FF8
FF80000FF8
FF80000FF8
FF80000FF8
FF80000FF8
FF80000FF8
FF80000FF8
FF80000FF8
FF80000FF8
FF80000FF8
FF80000FF8
FF80000FF8
FF80000FF8
FF80000FF8
FF80000FF8
FF80000FF8
FF80000FF8
FF80000FF8
FF80000FF8
FF80000FF8
FF80000FF8
FF80000FF8
FF80000FF8
FF80000FF8
FF80000FF8
FF80000FF8
FF80001FF8
FF80001FF8
FFC0001FF8
FFC0001FF8
FFE0003FF8
FFF000FFF8
7FFF07FFF0
7FFFFFFFF0
7FFFFFFFE0
3FFFFFFFE0
1FFFFFFFC0
0FFFFFFF80
07FFFFFE00
01FFFFFC00
003FFFE000
ENDCHAR
STARTCHAR 00DB
ENCODING 219
SWIDTH 688 0
DWIDTH 45 0
BBX 37 61 4 0
BITMAP
0001F80000
0003FC0000
0007FE0000
000FFE0000
000FFF0000
001FBF8000
003F1FC000
007E0FC000
007C07E000
00FC03F000
0000000000
0000000000
0000000000
FF80000FF8
FF80000FF8
FF80000FF8
FF80000FF8
FF80000FF8
FF80000FF8
FF80000FF8
FF80000FF8
FF80000FF8
FF80000FF8
FF80000FF8
FF80000FF8
FF80000FF8
FF80000FF8
FF80000FF8
FF80000FF8
FF80000FF8
FF80000FF8
FF80000FF8
FF80000FF8
FF80000FF8
FF80000FF8
FF80000FF8
FF80000FF8
FF80000FF8
FF80000FF8
FF80000FF8
FF80000FF8
FF80000FF8
FF80000FF8
FF80000FF8
FF80000FF8
FF80000FF8
FF80001FF8
FF80001FF8
FFC0001FF8
FFC0001FF8
FFE0003FF8
FFF000FFF8
7FFF07FFF0
7FFFFFFFF0
7FFFFFFFE0
3FFFFFFFE0
1FFFFFFFC0
0FFFFFFF80
07FFFFFE00
01FFFFFC00
003FFFE000
ENDCHAR
STARTCHAR 00DC
ENCODING 220
SWIDTH 688 0
DWIDTH 45 0
BBX 37 61 4 0
BITMAP
01FC07F000
01FC07F000
01FC07F000
01FC07F000
01FC07F000
01FC07F000
01FC07F000
01FC07F000
01FC07F000
0000000000
0000000000
0000000000
0000000000
FF80000FF8
FF80000FF8
FF80000FF8
FF80000FF8
FF80000FF8
FF80000FF8
FF80000FF8
FF80000FF8
FF80000FF8
FF80000FF8
FF80000FF8
FF80000FF8
FF80000FF8
FF80000FF8
FF80000FF8
FF80000FF8
FF80000FF8
FF80000FF8
FF80000FF8
FF80000FF8
FF80000FF8
FF80000FF8
FF80000FF8
FF80000FF8
FF80000FF8
FF80000FF8
FF80000FF8
FF80000FF8
FF80000FF8
FF80000FF8
FF80000FF8
FF80000FF8
FF80000FF8
FF80001FF8
FF80001FF8
FFC0001FF8
FFC0001FF8
FFE0003FF8
FFF000FFF8
7FFF07FFF0
7FFFFFFFF0
7FFFFFFFE0
3FFFFFFFE0
1FFFFFFFC0
0FFFFFFF80
07FFFFFE00
01FFFFFC00
003FFFE000
ENDCHAR
STARTCHAR 00DD
ENCODING 221
SWIDTH 627 0
DWIDTH 41 0
BBX 39 60 1 0
BITMAP
000003FC00
000003F800
000007F000
00000FE000
00000FC000
00001FC000
00001F8000
00003F0000
00007E0000
0000000000
0000000000
0000000000
FFE00007FE
7FE0000FFC
7FE0000FFC
3FF0000FF8
3FF0001FF8
1FF8001FF0
1FF8003FF0
1FF8003FE0
0FFC003FE0
0FFC007FE0
07FE007FC0
07FE00FFC0
03FE00FF80
03FF00FF80
01FF01FF00
01FF81FF00
01FF83FF00
00FF83FE00
00FFC3FE00
007FC7FC00
007FE7FC00
003FEFF800
003FEFF800
003FFFF800
001FFFF000
001FFFF000
000FFFE000
000FFFE000
0007FFC000
0007FFC000
0007FFC000
0003FF8000
0003FF8000
0001FF0000
0001FF0000
0001FF0000
0001FF0000
0001FF0000
0001FF0000
0001FF0000
0001FF0000
0001FF0000
0001FF0000
0001FF0000
0001FF0000
0001FF0000
0001FF0000
0001FF0000
ENDCHAR
STARTCHAR 00DE
ENCODING 222
SWIDTH 581 0
DWIDTH 38 0
BBX 32 48 4 0
BITMAP
FFC00000
FFC00000
FFC00000
FFC00000
FFC00000
FFC00000
FFC00000
FFFFE000
FFFFFF80
FFFFFFE0
FFFFFFF0
FFFFFFF8
FFFFFFFC
FFFFFFFC
FFFFFFFE
FFFFFFFE
FFC01FFE
FFC007FF
FFC007FF
FFC003FF
FFC003FF
FFC003FF
FFC003FF
FFC003FF
FFC003FF
FFC003FF
FFC003FF
FFC003FF
FFC007FF
FFC007FF
FFC01FFE
FFFFFFFE
FFFFFFFE
FFFFFFFC
FFFFFFF8
FFFFFFF8
FFFFFFF0
FFFFFFC0
FFFFFF00
FFC00000
FFC00000
FFC00000
FFC00000
FFC00000
FFC00000
FFC00000
FFC00000
FFC00000
ENDCHAR
STARTCHAR 00DF
ENCODING 223
SWIDTH 612 0
DWIDTH 40 0
BBX 35 50 3 0
BITMAP
000FFC0000
00FFFF8000
03FFFFE000
07FFFFF800
0FFFFFFC00
1FFFFFFC00
3FFFFFFE00
3FFFFFFE00
7FF807FF00
7FF003FF00
7FE001FF00
FFC001FF00
FFC001FF00
FFC001FF00
FFC001FF00
FFC001FF00
FFC003FF00
FFC003FE00
FFC007FE00
FFC00FFC00
FFC01FF800
FFC01FF000
FFC03FF000
FFC07FE000
FFC07FC000
FFC07FC000
FFC0FFC000
FFC0FFC000
FFC0FFE000
FFC0FFF000
FFC07FFC00
FFC07FFF00
FFC03FFF80
FFC01FFFC0
FFC00FFFC0
FFC003FFE0
FFC000FFE0
FFC0007FE0
FFC0003FE0
FFC0003FE0
FFC0003FE0
FFC0003FE0
FFC000FFE0
FFC3FFFFE0
FFC3FFFFE0
FFC3FFFFC0
FFC3FFFF80
FFC3FFFF00
FFC3FFFE00
FFC3FFF800
ENDCHAR
STARTCHAR 00E0
ENCODING 224
SWIDTH 551 0
DWIDTH 36 0
BBX 30 50 2 0
BITMAP
01FE0000
00FF0000
007F0000
003F8000
001F8000
000FC000
000FE000
0007E000
0003F000
00000000
00000000
00000000
00000000
00000000
0000C000
03FFFF00
1FFFFFC0
1FFFFFF0
1FFFFFF0
1FFFFFF8
1FFFFFF8
1FFFFFFC
00003FFC
00000FFC
00000FFC
000007FC
000007FC
000007FC
000007FC
00FFFFFC
07FFFFFC
1FFFFFFC
3FFFFFFC
3FFFFFFC
7FF807FC
7FE007FC
FFC007FC
FFC007FC
FFC007FC
FFC007FC
FFC007FC
FFC007FC
FFE01FFC
FFF8FFFC
7FFFFFFC
7FFFFFFC
7FFFFFFC
3FFFF3FC
1FFFC3FC
07FE01FC
ENDCHAR
STARTCHAR 00E1
ENCODING 225
SWIDTH 551 0
DWIDTH 36 0
BBX 30 50 2 0
BITMAP
00003FC0
00007F80
00007F00
0000FE00
0001FC00
0001F800
0003F000
0003F000
0007E000
00000000
00000000
00000000
00000000
00000000
0000C000
03FFFF00
1FFFFFC0
1FFFFFF0
1FFFFFF0
1FFFFFF8
1FFFFFF8
1FFFFFFC
00003FFC
00000FFC
00000FFC
000007FC
000007FC
000007FC
000007FC
00FFFFFC
07FFFFFC
1FFFFFFC
3FFFFFFC
3FFFFFFC
7FF807FC
7FE007FC
FFC007FC
FFC007FC
FFC007FC
FFC007FC
FFC007FC
FFC007FC
FFE01FFC
FFF8FFFC
7FFFFFFC
7FFFFFFC
7FFFFFFC
3FFFF3FC
1FFFC3FC
07FE01FC
ENDCHAR
STARTCHAR 00E2
ENCODING 226
SWIDTH 551 0
DWIDTH 36 0
BBX 30 51 2 0
BITMAP
0007E000
000FF000
001FF800
003FF800
007FFC00
007EFE00
00FC7E00
01F83F00
03F01F80
07E00FC0
00000000
00000000
00000000
00000000
00000000
0000C000
03FFFF00
1FFFFFC0
1FFFFFF0
1FFFFFF0
1FFFFFF8
1FFFFFF8
1FFFFFFC
00003FFC
00000FFC
00000FFC
000007FC
000007FC
000007FC
000007FC
00FFFFFC
07FFFFFC
1FFFFFFC
3FFFFFFC
3FFFFFFC
7FF807FC
7FE007FC
FFC007FC
FFC007FC
FFC007FC
FFC007FC
FFC007FC
FFC007FC
FFE01FFC
FFF8FFFC
7FFFFFFC
7FFFFFFC
7FFFFFFC
3FFFF3FC
1FFFC3FC
07FE01FC
ENDCHAR
STARTCHAR 00E3
ENCODING 227
SWIDTH 551 0
DWIDTH 36 0
BBX 30 50 2 0
BITMAP
002001F0
01FE01F0
03FF83F0
07FFFFE0
07FFFFE0
0FFFFFE0
0FC3FFC0
0F80FF80
0F801F00
00000000
00000000
00000000
00000000
00000000
0000C000
03FFFF00
1FFFFFC0
1FFFFFF0
1FFFFFF0
1FFFFFF8
1FFFFFF8
1FFFFFFC
00003FFC
00000FFC
00000FFC
000007FC
000007FC
000007FC
000007FC
00FFFFFC
07FFFFFC
1FFFFFFC
3FFFFFFC
3FFFFFFC
7FF807FC
7FE007FC
FFC007FC
FFC007FC
FFC007FC
FFC007FC
FFC007FC
FFC007FC
FFE01FFC
FFF8FFFC
7FFFFFFC
7FFFFFFC
7FFFFFFC
3FFFF3FC
1FFFC3FC
07FE01FC
ENDCHAR
STARTCHAR 00E4
ENCODING 228
SWIDTH 551 0
DWIDTH 36 0
BBX 30 51 2 0
BITMAP
03F01F80
07F03F80
07F83F80
07F83F80
07F83F80
07F83F80
07F83F80
07F83F80
07F03F80
00000000
00000000
00000000
00000000
00000000
00000000
0000C000
03FFFF00
1FFFFFC0
1FFFFFF0
1FFFFFF0
1FFFFFF8
1FFFFFF8
1FFFFFFC
00003FFC
00000FFC
00000FFC
000007FC
000007FC
000007FC
000007FC
00FFFFFC
07FFFFFC
1FFFFFFC
3FFFFFFC
3FFFFFFC
7FF807FC
7FE007FC
FFC007FC
FFC007FC
FFC007FC
FFC007FC
FFC007FC
FFC007FC
FFE01FFC
FFF8FFFC
7FFFFFFC
7FFFFFFC
7FFFFFFC
3FFFF3FC
1FFFC3FC
07FE01FC
ENDCHAR
STARTCHAR 00E5
ENCODING 229
SWIDTH 551 0
DWIDTH 36 0
BBX 30 53 2 0
BITMAP
000FF000
003FFC00
007FFE00
00FFFE00
00F83E00
00F01F00
00F01F00
00F01F00
00F01F00
00F01F00
00F83E00
00FFFE00
007FFC00
003FF800
0007C000
00000000
00000000
0000C000
03FFFF00
1FFFFFC0
1FFFFFF0
1FFFFFF0
1FFFFFF8
1FFFFFF8
1FFFFFFC
00003FFC
00000FFC
00000FFC
000007FC
000007FC
000007FC
000007FC
00FFFFFC
07FFFFFC
1FFFFFFC
3FFFFFFC
3FFFFFFC
7FF807FC
7FE007FC
FFC007FC
FFC007FC
FFC007FC
FFC007FC
FFC007FC
FFC007FC
FFE01FFC
FFF8FFFC
7FFFFFFC
7FFFFFFC
7FFFFFFC
3FFFF3FC
1FFFC3FC
07FE01FC
ENDCHAR
STARTCHAR 00E6
ENCODING 230
SWIDTH 857 0
DWIDTH 56 0
BBX 51 36 2 0
BITMAP
000200001F0000
03FFF803FFF800
1FFFFF0FFFFE00
1FFFFF9FFFFF00
1FFFFFFFFFFF80
1FFFFFFFFFFF80
1FFFFFFFFFFFC0
1FFFFFFFFFFFC0
00003FFF00FFC0
00000FFE007FC0
000007FE003FC0
000007FE003FC0
000007FE003FE0
000007FC003FE0
000007FC007FC0
003FFFFC01FFC0
07FFFFFFFFFFC0
0FFFFFFFFFFFC0
1FFFFFFFFFFF80
3FFFFFFFFFFF00
7FFE07FFFFFC00
7FE007FFFF4000
7FE007FC000000
FFC007FC000000
FFC007FE000000
FFC007FE000000
FFC003FF000000
FFC00FFF800000
FFE01FFFE00000
7FF8FFFFFFFF80
7FFFFFFFFFFF80
7FFFFCFFFFFF80
3FFFF87FFFFF80
3FFFF03FFFFF80
1FFFC01FFFFF80
07FE0003FFFE00
ENDCHAR
STARTCHAR 00E7
ENCODING 231
SWIDTH 489 0
DWIDTH 32 0
BBX 27 49 3 -13
BITMAP
00078000
00FFFF80
03FFFFE0
0FFFFFE0
1FFFFFE0
3FFFFFE0
3FFFFFE0
7FFFFFE0
7FF80000
7FE00000
FFE00000
FFC00000
FFC00000
FFC00000
FFC00000
FF800000
FF800000
FF800000
FF800000
FF800000
FF800000
FF800000
FFC00000
FFC00000
FFC00000
FFC00000
7FE00000
7FF00000
7FF80000
3FFFFFE0
3FFFFFE0
1FFFFFE0
0FFFFFE0
07FFFFE0
03FFFFE0
00FFFF00
00078000
000F8000
000F0000
001F0000
000FE000
0007E000
0003F000
0007F000
000FF000
003FF000
003FE000
003FC000
003F0000
ENDCHAR
STARTCHAR 00E8
ENCODING 232
SWIDTH 535 0
DWIDTH 35 0
BBX 29 50 3 0
BITMAP
03FC0000
01FE0000
00FE0000
007F0000
003F0000
001F8000
001FC000
000FC000
0007E000
00000000
00000000
00000000
00000000
00000000
000B8000
01FFFF00
07FFFFC0
0FFFFFE0
1FFFFFF0
3FFFFFF0
7FFFFFF8
7FFCFFF8
7FE00FF8
FFC00FF8
FFC007F8
FFC007F8
FF8007F8
FF8007F8
FF8007F8
FF800FF8
FFFFFFF8
FFFFFFF0
FFFFFFF0
FFFFFFE0
FFFFFF80
FFFFFC00
FF800000
FF800000
FFC00000
FFC00000
FFC00000
7FE00000
7FF80000
7FFFFFF0
3FFFFFF0
3FFFFFF0
1FFFFFF0
0FFFFFF0
03FFFFF0
00FFFF80
ENDCHAR
STARTCHAR 00E9
ENCODING 233
SWIDTH 535 0
DWIDTH 35 0
BBX 29 50 3 0
BITMAP
00007F80
0000FF00
0000FE00
0001FC00
0003F800
0003F000
0007E000
0007E000
000FC000
00000000
00000000
00000000
00000000
00000000
000B8000
01FFFF00
07FFFFC0
0FFFFFE0
1FFFFFF0
3FFFFFF0
7FFFFFF8
7FFCFFF8
7FE00FF8
FFC00FF8
FFC007F8
FFC007F8
FF8007F8
FF8007F8
FF8007F8
FF800FF8
FFFFFFF8
FFFFFFF0
FFFFFFF0
FFFFFFE0
FFFFFF80
FFFFFC00
FF800000
FF800000
FFC00000
FFC00000
FFC00000
7FE00000
7FF80000
7FFFFFF0
3FFFFFF0
3FFFFFF0
1FFFFFF0
0FFFFFF0
03FFFFF0
00FFFF80
ENDCHAR
STARTCHAR 00EA
ENCODING 234
SWIDTH 535 0
DWIDTH 35 0
BBX 29 51 3 0
BITMAP
000FC000
001FE000
003FF000
007FF000
00FFF800
00FDFC00
01F8FC00
03F07E00
07E03F00
0FC01F80
00000000
00000000
00000000
00000000
00000000
000B8000
01FFFF00
07FFFFC0
0FFFFFE0
1FFFFFF0
3FFFFFF0
7FFFFFF8
7FFCFFF8
7FE00FF8
FFC00FF8
FFC007F8
FFC007F8
FF8007F8
FF8007F8
FF8007F8
FF800FF8
FFFFFFF8
FFFFFFF0
FFFFFFF0
FFFFFFE0
FFFFFF80
FFFFFC00
FF800000
FF800000
FFC00000
FFC00000
FFC00000
7FE00000
7FF80000
7FFFFFF0
3FFFFFF0
3FFFFFF0
1FFFFFF0
0FFFFFF0
03FFFFF0
00FFFF80
ENDCHAR
STARTCHAR 00EB
ENCODING 235
SWIDTH 535 0
DWIDTH 35 0
BBX 29 51 3 0
BITMAP
07E03F00
0FE07F00
0FF07F00
0FF07F00
0FF07F00
0FF07F00
0FF07F00
0FF07F00
0FE07F00
00000000
00000000
00000000
00000000
00000000
00000000
000B8000
01FFFF00
07FFFFC0
0FFFFFE0
1FFFFFF0
3FFFFFF0
7FFFFFF8
7FFCFFF8
7FE00FF8
FFC00FF8
FFC007F8
FFC007F8
FF8007F8
FF8007F8
FF8007F8
FF800FF8
FFFFFFF8
FFFFFFF0
FFFFFFF0
FFFFFFE0
FFFFFF80
FFFFFC00
FF800000
FF800000
FFC00000
FFC00000
FFC00000
7FE00000
7FF80000
7FFFFFF0
3FFFFFF0
3FFFFFF0
1FFFFFF0
0FFFFFF0
03FFFFF0
00FFFF80
ENDCHAR
STARTCHAR 00EC
ENCODING 236
SWIDTH 260 0
DWIDTH 17 0
BBX 13 50 0 0
BITMAP
FF00
7F80
3F80
1FC0
0FC0
0FE0
07F0
03F0
01F8
0000
0000
0000
0000
0000
0000
0FF8
0FF8
0FF8
0FF8
0FF8
0FF8
0FF8
0FF8
0FF8
0FF8
0FF8
0FF8
0FF8
0FF8
0FF8
0FF8
0FF8
0FF8
0FF8
0FF8
0FF8
0FF8
0FF8
0FF8
0FF8
0FF8
0FF8
0FF8
0FF8
0FF8
0FF8
0FF8
0FF8
0FF8
0FF8
ENDCHAR
STARTCHAR 00ED
ENCODING 237
SWIDTH 260 0
DWIDTH 17 0
BBX 15 50 4 0
BITMAP
01FE
03F8
07F8
07F0
0FE0
0FC0
1F80
3F00
3F00
0000
0000
0000
0000
0000
0000
FF80
FF80
FF80
FF80
FF80
FF80
FF80
FF80
FF80
FF80
FF80
FF80
FF80
FF80
FF80
FF80
FF80
FF80
FF80
FF80
FF80
FF80
FF80
FF80
FF80
FF80
FF80
FF80
FF80
FF80
FF80
FF80
FF80
FF80
FF80
ENDCHAR
STARTCHAR 00EE
ENCODING 238
SWIDTH 260 0
DWIDTH 17 0
BBX 20 51 -2 0
BITMAP
01FC00
01FE00
03FE00
07FF00
0FFF80
0FDFC0
1F8FC0
3F07E0
7E03F0
FC01F0
000000
000000
000000
000000
000000
000000
03FE00
03FE00
03FE00
03FE00
03FE00
03FE00
03FE00
03FE00
03FE00
03FE00
03FE00
03FE00
03FE00
03FE00
03FE00
03FE00
03FE00
03FE00
03FE00
03FE00
03FE00
03FE00
03FE00
03FE00
03FE00
03FE00
03FE00
03FE00
03FE00
03FE00
03FE00
03FE00
03FE00
03FE00
03FE00
ENDCHAR
STARTCHAR 00EF
ENCODING 239
SWIDTH 260 0
DWIDTH 17 0
BBX 20 51 -2 0
BITMAP
7E03F0
FE07F0
FE07F0
FE07F0
FE07F0
FE07F0
FE07F0
FE07F0
FE07F0
000000
000000
000000
000000
000000
000000
000000
03FE00
03FE00
03FE00
03FE00
03FE00
03FE00
03FE00
03FE00
03FE00
03FE00
03FE00
03FE00
03FE00
03FE00
03FE00
03FE00
03FE00
03FE00
03FE00
03FE00
03FE00
03FE00
03FE00
03FE00
03FE00
03FE00
03FE00
03FE00
03FE00
03FE00
03FE00
03FE00
03FE00
03FE00
03FE00
ENDCHAR
STARTCHAR 00F0
ENCODING 240
SWIDTH 581 0
DWIDTH 38 0
BBX 32 50 3 0
BITMAP
07E00000
07FF0004
07FFE01E
07FFF87E
07FFFFFE
07FFFFF8
001FFFC0
0003FFC0
000FFFE0
007FFFE0
03FF1FF0
03F81FF8
01C00FF8
010007F8
000007FC
000207FC
00FFFBFC
07FFFFFE
0FFFFFFE
1FFFFFFE
3FFFFFFE
3FFFFFFE
7FFFFFFE
7FF81FFE
7FE00FFF
FFC007FF
FFC003FF
FFC003FF
FFC003FF
FF8003FF
FF8003FF
FF8003FF
FF8003FF
FF8003FF
FF8003FF
FF8003FF
FF8003FF
FFC003FF
FFC003FF
FFC007FE
FFE007FE
7FE00FFE
7FFE7FFE
7FFFFFFC
3FFFFFFC
3FFFFFF8
1FFFFFF0
0FFFFFE0
03FFFFC0
00FFFE00
ENDCHAR
STARTCHAR 00F1
ENCODING 241
SWIDTH 596 0
DWIDTH 39 0
BBX 31 50 4 0
BITMAP
002001F0
01FE01F0
03FF83F0
07FFFFE0
07FFFFE0
0FFFFFE0
0FC3FFC0
0F80FF80
0F801E00
00000000
00000000
00000000
00000000
00000000
00001C00
FF01FFC0
FF0FFFF0
FF9FFFF8
FFFFFFF8
FFFFFFFC
FFFFFFFC
FFFFFFFE
FFFFFFFE
FFFC1FFE
FFE00FFE
FFC007FE
FF8007FE
FF8003FE
FF8003FE
FF8003FE
FF8003FE
FF8003FE
FF8003FE
FF8003FE
FF8003FE
FF8003FE
FF8003FE
FF8003FE
FF8003FE
FF8003FE
FF8003FE
FF8003FE
FF8003FE
FF8003FE
FF8003FE
FF8003FE
FF8003FE
FF8003FE
FF8003FE
FF8003FE
ENDCHAR
STARTCHAR 00F2
ENCODING 242
SWIDTH 581 0
DWIDTH 38 0
BBX 32 50 3 0
BITMAP
01FE0000
00FF0000
007F0000
003F8000
001FC000
000FC000
000FE000
0007E000
0003F000
00000000
00000000
00000000
00000000
00000000
0003C000
01FFFF00
07FFFFC0
0FFFFFF0
1FFFFFF8
3FFFFFF8
3FFFFFFC
7FFFFFFC
7FF81FFE
7FE00FFE
FFC007FE
FFC007FE
FFC003FF
FFC003FF
FF8003FF
FF8003FF
FF8003FF
FF8003FF
FF8003FF
FF8003FF
FF8003FF
FF8003FF
FFC003FF
FFC003FF
FFC003FF
FFC007FE
FFE007FE
7FE00FFE
7FFE7FFE
7FFFFFFC
3FFFFFFC
1FFFFFF8
1FFFFFF0
0FFFFFE0
03FFFFC0
00FFFE00
ENDCHAR
STARTCHAR 00F3
ENCODING 243
SWIDTH 581 0
DWIDTH 38 0
BBX 32 50 3 0
BITMAP
00003FC0
00007F80
00007F00
0000FE00
0001FC00
0001F800
0003F800
0003F000
0007E000
00000000
00000000
00000000
00000000
00000000
0003C000
01FFFF00
07FFFFC0
0FFFFFF0
1FFFFFF8
3FFFFFF8
3FFFFFFC
7FFFFFFC
7FF81FFE
7FE00FFE
FFC007FE
FFC007FE
FFC003FF
FFC003FF
FF8003FF
FF8003FF
FF8003FF
FF8003FF
FF8003FF
FF8003FF
FF8003FF
FF8003FF
FFC003FF
FFC003FF
FFC003FF
FFC007FE
FFE007FE
7FE00FFE
7FFE7FFE
7FFFFFFC
3FFFFFFC
1FFFFFF8
1FFFFFF0
0FFFFFE0
03FFFFC0
00FFFE00
ENDCHAR
STARTCHAR 00F4
ENCODING 244
SWIDTH 581 0
DWIDTH 38 0
BBX 32 51 3 0
BITMAP
0007E000
000FF000
001FF800
003FF800
003FFC00
007EFE00
00FC7E00
01F83F00
01F01F80
03E00FC0
00000000
00000000
00000000
00000000
00000000
0003C000
01FFFF00
07FFFFC0
0FFFFFF0
1FFFFFF8
3FFFFFF8
3FFFFFFC
7FFFFFFC
7FF81FFE
7FE00FFE
FFC007FE
FFC007FE
FFC003FF
FFC003FF
FF8003FF
FF8003FF
FF8003FF
FF8003FF
FF8003FF
FF8003FF
FF8003FF
FF8003FF
FFC003FF
FFC003FF
FFC003FF
FFC007FE
FFE007FE
7FE00FFE
7FFE7FFE
7FFFFFFC
3FFFFFFC
1FFFFFF8
1FFFFFF0
0FFFFFE0
03FFFFC0
00FFFE00
ENDCHAR
STARTCHAR 00F5
ENCODING 245
SWIDTH 581 0
DWIDTH 38 0
BBX 32 50 3 0
BITMAP
002001F0
01FE01F0
03FF81F0
07FFFFF0
07FFFFE0
07FFFFE0
0FC3FFC0
0F80FF80
0F801F00
00000000
00000000
00000000
00000000
00000000
0003C000
01FFFF00
07FFFFC0
0FFFFFF0
1FFFFFF8
3FFFFFF8
3FFFFFFC
7FFFFFFC
7FF81FFE
7FE00FFE
FFC007FE
FFC007FE
FFC003FF
FFC003FF
FF8003FF
FF8003FF
FF8003FF
FF8003FF
FF8003FF
FF8003FF
FF8003FF
FF8003FF
FFC003FF
FFC003FF
FFC003FF
FFC007FE
FFE007FE
7FE00FFE
7FFE7FFE
7FFFFFFC
3FFFFFFC
1FFFFFF8
1FFFFFF0
0FFFFFE0
03FFFFC0
00FFFE00
ENDCHAR
STARTCHAR 00F6
ENCODING 246
SWIDTH 581 0
DWIDTH 38 0
BBX 32 51 3 0
BITMAP
03F01F80
07F83F80
07F83F80
07F83F80
07F83F80
07F83F80
07F83F80
07F83F80
03F83F80
00000000
00000000
00000000
00000000
00000000
00000000
0003C000
01FFFF00
07FFFFC0
0FFFFFF0
1FFFFFF8
3FFFFFF8
3FFFFFFC
7FFFFFFC
7FF81FFE
7FE00FFE
FFC007FE
FFC007FE
FFC003FF
FFC003FF
FF8003FF
FF8003FF
FF8003FF
FF8003FF
FF8003FF
FF8003FF
FF8003FF
FF8003FF
FFC003FF
FFC003FF
FFC003FF
FFC007FE
FFE007FE
7FE00FFE
7FFE7FFE
7FFFFFFC
3FFFFFFC
1FFFFFF8
1FFFFFF0
0FFFFFE0
03FFFFC0
00FFFE00
ENDCHAR
STARTCHAR 00F7
ENCODING 247
SWIDTH 612 0
DWIDTH 40 0
BBX 30 35 5 6
BITMAP
001FE000
003FE000
003FE000
003FE000
003FE000
003FE000
003FE000
001FE000
00000000
00000000
00000000
00000000
00000000
00000000
FFFFFFFC
FFFFFFFC
FFFFFFFC
FFFFFFFC
FFFFFFFC
FFFFFFFC
FFFFFFFC
FFFFFFFC
00000000
00000000
00000000
00000000
00000000
001FE000
003FE000
003FE000
003FE000
003FE000
003FE000
003FE000
001FE000
ENDCHAR
STARTCHAR 00F8
ENCODING 248
SWIDTH 581 0
DWIDTH 38 0
BBX 34 36 2 0
BITMAP
0001E00000
00FFFF87C0
03FFFFEF00
07FFFFFF00
0FFFFFFE00
1FFFFFFC00
1FFFFFFE00
3FFFFFFE00
3FFC0FFF00
3FF007FF00
7FE007FF00
7FE00FFF00
7FE00FFF80
7FE01FFF80
7FC03DFF80
7FC07DFF80
7FC0F9FF80
7FC1F1FF80
7FC3E1FF80
7FC3C1FF80
7FC781FF80
7FCF81FF80
7FFF01FF80
7FFE01FF80
7FFC01FF80
7FF803FF00
7FF003FF00
3FF007FF00
3FFF3FFF00
3FFFFFFE00
1FFFFFFE00
0FFFFFFC00
1FFFFFF800
3FFFFFF000
7DFFFFE000
F87FFF0000
ENDCHAR
STARTCHAR 00F9
ENCODING 249
SWIDTH 596 0
DWIDTH 39 0
BBX 31 50 4 0
BITMAP
03FE0000
00FE0000
007F0000
007F0000
003F8000
001FC000
000FC000
0007E000
0003E000
00000000
00000000
00000000
00000000
00000000
00000000
FF8003FE
FF8003FE
FF8003FE
FF8003FE
FF8003FE
FF8003FE
FF8003FE
FF8003FE
FF8003FE
FF8003FE
FF8003FE
FF8003FE
FF8003FE
FF8003FE
FF8003FE
FF8003FE
FF8003FE
FF8003FE
FF8003FE
FF8003FE
FF8003FE
FF8003FE
FF8003FE
FF8003FE
FFC007FE
FFC00FFE
FFF07FFE
FFFFFFFE
FFFFFFFE
FFFFFFFE
7FFFFFFE
7FFFFBFE
3FFFF3FE
1FFFC1FE
07FE01FE
ENDCHAR
STARTCHAR 00FA
ENCODING 250
SWIDTH 596 0
DWIDTH 39 0
BBX 31 50 4 0
BITMAP
00007FC0
00007F00
0000FE00
0001FC00
0001FC00
0003F800
0003F000
0007E000
000FC000
00000000
00000000
00000000
00000000
00000000
00000000
FF8003FE
FF8003FE
FF8003FE
FF8003FE
FF8003FE
FF8003FE
FF8003FE
FF8003FE
FF8003FE
FF8003FE
FF8003FE
FF8003FE
FF8003FE
FF8003FE
FF8003FE
FF8003FE
FF8003FE
FF8003FE
FF8003FE
FF8003FE
FF8003FE
FF8003FE
FF8003FE
FF8003FE
FFC007FE
FFC00FFE
FFF07FFE
FFFFFFFE
FFFFFFFE
FFFFFFFE
7FFFFFFE
7FFFFBFE
3FFFF3FE
1FFFC1FE
07FE01FE
ENDCHAR
STARTCHAR 00FB
ENCODING 251
SWIDTH 596 0
DWIDTH 39 0
BBX 31 51 4 0
BITMAP
000FE000
001FE000
003FF000
003FF800
007FF800
00FEFC00
01FC7E00
01F87F00
03F03F00
07E01F80
00000000
00000000
00000000
00000000
00000000
00000000
FF8003FE
FF8003FE
FF8003FE
FF8003FE
FF8003FE
FF8003FE
FF8003FE
FF8003FE
FF8003FE
FF8003FE
FF8003FE
FF8003FE
FF8003FE
FF8003FE
FF8003FE
FF8003FE
FF8003FE
FF8003FE
FF8003FE
FF8003FE
FF8003FE
FF8003FE
FF8003FE
FF8003FE
FFC007FE
FFC00FFE
FFF07FFE
FFFFFFFE
FFFFFFFE
FFFFFFFE
7FFFFFFE
7FFFFBFE
3FFFF3FE
1FFFC1FE
07FE01FE
ENDCHAR
STARTCHAR 00FC
ENCODING 252
SWIDTH 596 0
DWIDTH 39 0
BBX 31 51 4 0
BITMAP
07F03F00
07F03F80
07F03F80
07F03F80
07F03F80
07F03F80
07F03F80
07F03F80
07F03F80
00000000
00000000
00000000
00000000
00000000
00000000
00000000
FF8003FE
FF8003FE
FF8003FE
FF8003FE
FF8003FE
FF8003FE
FF8003FE
FF8003FE
FF8003FE
FF8003FE
FF8003FE
FF8003FE
FF8003FE
FF8003FE
FF8003FE
FF8003FE
FF8003FE
FF8003FE
FF8003FE
FF8003FE
FF8003FE
FF8003FE
FF8003FE
FF8003FE
FFC007FE
FFC00FFE
FFF07FFE
FFFFFFFE
FFFFFFFE
FFFFFFFE
7FFFFFFE
7FFFFBFE
3FFFF3FE
1FFFC1FE
07FE01FE
ENDCHAR
STARTCHAR 00FD
ENCODING 253
SWIDTH 566 0
DWIDTH 37 0
BBX 35 65 1 -15
BITMAP
00001FE000
00003FC000
00003F8000
00007F0000
00007E0000
0000FE0000
0001FC0000
0001F80000
0003F00000
0000000000
0000000000
0000000000
0000000000
0000000000
0000000000
FFC0007FE0
FFC0007FE0
FFC0007FE0
7FE0007FC0
7FE000FFC0
7FE000FFC0
7FE000FFC0
3FF000FFC0
3FF000FF80
3FF001FF80
3FF001FF80
1FF801FF80
1FF801FF00
1FF803FF00
0FF803FF00
0FF803FF00
0FFC03FE00
0FFC07FE00
07FC07FE00
07FC07FE00
07FE07FC00
07FE0FFC00
03FE0FFC00
03FE0FFC00
03FF0FFC00
03FF0FF800
01FF9FF800
01FFFFF800
01FFFFF800
00FFFFF000
00FFFFF000
007FFFF000
003FFFF000
000FFFE000
0003FFE000
00007FE000
00007FE000
00007FC000
00007FC000
0000FFC000
0000FFC000
0000FF8000
0000FF8000
0001FF8000
0001FF8000
0001FF0000
0001FF0000
0003FE0000
0003FE0000
0003FC0000
ENDCHAR
STARTCHAR 00FE
ENCODING 254
SWIDTH 581 0
DWIDTH 38 0
BBX 32 65 4 -15
BITMAP
FF800000
FF800000
FF800000
FF800000
FF800000
FF800000
FF800000
FF800000
FF800000
FF800000
FF800000
FF800000
FF800000
FF800000
FF803000
FF83FF00
FF8FFFC0
FFBFFFE0
FFFFFFF0
FFFFFFF8
FFFFFFF8
FFFFFFFC
FFF83FFC
FFE01FFC
FF800FFE
FF8007FE
FF8007FE
FF8007FE
FF8003FE
FF8003FE
FF8003FE
FF8003FF
FF8003FF
FF8003FF
FF8003FE
FF8003FE
FF8003FE
FF8007FE
FF8007FE
FF8007FE
FF800FFE
FFE01FFE
FFFFFFFC
FFFFFFFC
FFFFFFF8
FFFFFFF8
FFFFFFF0
FFFFFFE0
FFBFFFC0
FF87FF00
FF800000
FF800000
FF800000
FF800000
FF800000
FF800000
FF800000
FF800000
FF800000
FF800000
FF800000
FF800000
FF800000
FF800000
FF800000
ENDCHAR
STARTCHAR 00FF
ENCODING 255
SWIDTH 566 0
DWIDTH 37 0
BBX 35 66 1 -15
BITMAP
01F80FC000
01FC1FE000
01FC1FE000
01FC1FE000
01FC1FE000
01FC1FE000
01FC1FE000
01FC1FE000
01FC0FE000
0000000000
0000000000
0000000000
0000000000
0000000000
0000000000
0000000000
FFC0007FE0
FFC0007FE0
FFC0007FE0
7FE0007FC0
7FE000FFC0
7FE000FFC0
7FE000FFC0
3FF000FFC0
3FF000FF80
3FF001FF80
3FF001FF80
1FF801FF80
1FF801FF00
1FF803FF00
0FF803FF00
0FF803FF00
0FFC03FE00
0FFC07FE00
07FC07FE00
07FC07FE00
07FE07FC00
07FE0FFC00
03FE0FFC00
03FE0FFC00
03FF0FFC00
03FF0FF800
01FF9FF800
01FFFFF800
01FFFFF800
00FFFFF000
00FFFFF000
007FFFF000
003FFFF000
000FFFE000
0003FFE000
00007FE000
00007FE000
00007FC000
00007FC000
0000FFC000
0000FFC000
0000FF8000
0000FF8000
0001FF8000
0001FF8000
0001FF0000
0001FF0000
0003FE0000
0003FE0000
0003FC0000
ENDCHAR
ENDFONT
